STARTFONT 2.1
COMMENT This font is still under development.
COMMENT You can use, copy, modify, distribute this file for free.
COMMENT
COMMENT This font was automatically resized by bdfresize-1.4
COMMENT   mag_x = 40/24, mag_y = 40/24, blackness = 4
COMMENT This font was created by modifying fg-20.bdf distributed with
COMMENT X.V11R3 under the directory contrib/fonts/bdf/oldx11.
COMMENT And, slightly modified by Kawabata.
COMMENT The comment below is the original one.
COMMENT -------------------------------------------------------------
COMMENT the Lisp Machine name for this font was "20fg.ast"
COMMENT -------------------------------------------------------------
COMMENT 91.12.14 modified by K.Handa <handa@etl.go.jp>
COMMENT   - ISO8859-1 Latin-1 glyphs are added.
COMMENT This font is very suitable when used with:
COMMENT   -jis-fixed-medium-r-normal--24-230-75-75-c-240-jisx0208.1983-0
COMMENT 92.06.23 modified by Takahashi N. <ntakahas@etl.go.jp>
COMMENT 92.07.09 modified by Takahashi N. <ntakahas@etl.go.jp>
COMMENT   - all BBX are changed to 12 24 0 -2
COMMENT 94.09.14 modified by Takahashi N. <ntakahas@etl.go.jp>
FONT -Etl-Fixed-Medium-R-Normal--40-400-72-72-C-200-ISO8859-1
SIZE 40 72 72
FONTBOUNDINGBOX 20 40 0 -3
STARTPROPERTIES 19
FONTNAME_REGISTRY ""
FOUNDRY "ETL"
FAMILY_NAME "Fixed"
WEIGHT_NAME "Medium"
SLANT "R"
SETWIDTH_NAME "Normal"
ADD_STYLE_NAME ""
PIXEL_SIZE 40
POINT_SIZE 400
RESOLUTION_X 72
RESOLUTION_Y 72
SPACING "C"
AVERAGE_WIDTH 200
CHARSET_REGISTRY "ISO8859"
CHARSET_ENCODING "1"
DEFAULT_CHAR 32
FONT_DESCENT 3
FONT_ASCENT 37
MULE_BASELINE_OFFSET -3
ENDPROPERTIES
CHARS 191
STARTCHAR SPACE
ENCODING 32
SWIDTH 834 0
DWIDTH 20 0
BBX 20 40 0 -3
BITMAP
000000
000000
000000
000000
000000
000000
000000
000000
000000
000000
000000
000000
000000
000000
000000
000000
000000
000000
000000
000000
000000
000000
000000
000000
000000
000000
000000
000000
000000
000000
000000
000000
000000
000000
000000
000000
000000
000000
000000
000000
ENDCHAR
STARTCHAR EXCLAMATION MARK
ENCODING 33
SWIDTH 834 0
DWIDTH 20 0
BBX 20 40 0 -3
BITMAP
000000
000000
000000
000000
000000
000000
000000
000000
00f000
00f000
00f000
00f000
00f000
00f000
00f000
00f000
00f000
00f000
00f000
00f000
00f000
00f000
00f000
00f000
00f000
000000
000000
000000
00f000
01f800
03fc00
01f800
00f000
006000
000000
000000
000000
000000
000000
000000
ENDCHAR
STARTCHAR QUOTATION MARK
ENCODING 34
SWIDTH 834 0
DWIDTH 20 0
BBX 20 40 0 -3
BITMAP
000000
000000
000000
000000
000000
000000
070e00
079e00
079e00
079e00
079e00
079e00
079e00
079e00
079e00
000000
000000
000000
000000
000000
000000
000000
000000
000000
000000
000000
000000
000000
000000
000000
000000
000000
000000
000000
000000
000000
000000
000000
000000
000000
ENDCHAR
STARTCHAR NUMBER SIGN
ENCODING 35
SWIDTH 834 0
DWIDTH 20 0
BBX 20 40 0 -3
BITMAP
000000
000000
000000
000000
000000
000000
000000
000000
01c780
03c780
03c780
03c780
03c780
1fffc0
1fffe0
1fffe0
1fffc0
079e00
079e00
079e00
079e00
079e00
079e00
3fff80
7fff80
7fff80
3fff80
1e3c00
1e3c00
1e3c00
1e3c00
1e3800
000000
000000
000000
000000
000000
000000
000000
000000
ENDCHAR
STARTCHAR DOLLAR SIGN
ENCODING 36
SWIDTH 834 0
DWIDTH 20 0
BBX 20 40 0 -3
BITMAP
000000
000000
000000
000000
000000
000000
000000
000000
00f000
00f000
07fe00
0fffc0
1fffe0
3cf3e0
78f0e0
78f000
7cf000
3ff000
1ffe00
07ff00
01ff80
00ffc0
00f3e0
00f1e0
78f1e0
78f3e0
7fffc0
7fff80
3fff00
1ffe00
00f000
00f000
000000
000000
000000
000000
000000
000000
000000
000000
ENDCHAR
STARTCHAR PERCENT SIGN
ENCODING 37
SWIDTH 834 0
DWIDTH 20 0
BBX 20 40 0 -3
BITMAP
000000
000000
000000
000000
000000
000000
000000
000000
1f0780
3f8780
7fc780
7bcf00
71cf00
7bde00
7fde00
3fbc00
1f3c00
007800
007800
00f000
00f000
01e000
01e000
03cf80
03dfc0
07bfe0
07bde0
0f38e0
0f3de0
1e3fe0
1e1fc0
1e0f80
000000
000000
000000
000000
000000
000000
000000
000000
ENDCHAR
STARTCHAR AMPERSAND
ENCODING 38
SWIDTH 834 0
DWIDTH 20 0
BBX 20 40 0 -3
BITMAP
000000
000000
000000
000000
000000
000000
000000
000000
007800
00fc00
03fe00
03ff00
07df80
078f80
078780
078f00
03ff00
03fe00
03fe00
07fc00
1ff000
3ff8c0
7e3de0
7c1fe0
781fc0
781f80
783f00
7c7f00
3fffc0
1fffe0
0ff3e0
07e1c0
000000
000000
000000
000000
000000
000000
000000
000000
ENDCHAR
STARTCHAR APOSTROPHE
ENCODING 39
SWIDTH 834 0
DWIDTH 20 0
BBX 20 40 0 -3
BITMAP
000000
000000
000000
000000
000000
00f000
01f800
03fc00
03fc00
03fc00
007c00
003c00
003c00
007800
00f000
03e000
01c000
000000
000000
000000
000000
000000
000000
000000
000000
000000
000000
000000
000000
000000
000000
000000
000000
000000
000000
000000
000000
000000
000000
000000
ENDCHAR
STARTCHAR LEFT PARENTHESIS
ENCODING 40
SWIDTH 834 0
DWIDTH 20 0
BBX 20 40 0 -3
BITMAP
000000
000000
000000
000000
000000
000000
000000
000000
000f00
001e00
003c00
007c00
00f800
00f800
01f000
03f000
03e000
03c000
03c000
03c000
03c000
03c000
03c000
03e000
03f000
01f000
00f800
00f800
007c00
003c00
001e00
000f00
000000
000000
000000
000000
000000
000000
000000
000000
ENDCHAR
STARTCHAR RIGHT PARENTHESIS
ENCODING 41
SWIDTH 834 0
DWIDTH 20 0
BBX 20 40 0 -3
BITMAP
000000
000000
000000
000000
000000
000000
000000
000000
0f0000
078000
03c000
03e000
03f000
01f000
00f800
00fc00
007c00
003c00
003c00
003c00
003c00
003c00
003c00
007c00
00fc00
00f800
01f000
03f000
03e000
03c000
078000
0f0000
000000
000000
000000
000000
000000
000000
000000
000000
ENDCHAR
STARTCHAR ASTERISK
ENCODING 42
SWIDTH 834 0
DWIDTH 20 0
BBX 20 40 0 -3
BITMAP
000000
000000
000000
000000
000000
000000
000000
000000
000000
000000
000000
006000
00f000
00f000
60f060
78f1e0
7cf3e0
7ef7e0
3fffc0
07fe00
00f000
07fe00
07fe00
3fffc0
7ef7e0
78f1e0
38f1c0
10f080
00f000
00f000
006000
000000
000000
000000
000000
000000
000000
000000
000000
000000
ENDCHAR
STARTCHAR PLUS SIGN
ENCODING 43
SWIDTH 834 0
DWIDTH 20 0
BBX 20 40 0 -3
BITMAP
000000
000000
000000
000000
000000
000000
000000
000000
000000
000000
000000
000000
000000
00f000
00f000
00f000
00f000
00f000
00f000
00f000
7fffe0
7fffe0
7fffe0
7fffe0
00f000
00f000
00f000
00f000
00f000
00f000
00f000
000000
000000
000000
000000
000000
000000
000000
000000
000000
ENDCHAR
STARTCHAR COMMA
ENCODING 44
SWIDTH 834 0
DWIDTH 20 0
BBX 20 40 0 -3
BITMAP
000000
000000
000000
000000
000000
000000
000000
000000
000000
000000
000000
000000
000000
000000
000000
000000
000000
000000
000000
000000
000000
000000
000000
000000
000000
00f000
01f800
03f800
03fc00
03fc00
007c00
003c00
003c00
007800
00f000
03e000
01c000
000000
000000
000000
ENDCHAR
STARTCHAR HYPHEN, MINUS SIGN
ENCODING 45
SWIDTH 834 0
DWIDTH 20 0
BBX 20 40 0 -3
BITMAP
000000
000000
000000
000000
000000
000000
000000
000000
000000
000000
000000
000000
000000
000000
000000
000000
000000
000000
000000
000000
7fffe0
7fffe0
7fffe0
7fffe0
000000
000000
000000
000000
000000
000000
000000
000000
000000
000000
000000
000000
000000
000000
000000
000000
ENDCHAR
STARTCHAR FULL STOP
ENCODING 46
SWIDTH 834 0
DWIDTH 20 0
BBX 20 40 0 -3
BITMAP
000000
000000
000000
000000
000000
000000
000000
000000
000000
000000
000000
000000
000000
000000
000000
000000
000000
000000
000000
000000
000000
000000
000000
000000
000000
00f000
01f800
03fc00
03fc00
03fc00
01f800
00f000
000000
000000
000000
000000
000000
000000
000000
000000
ENDCHAR
STARTCHAR SOLIDUS
ENCODING 47
SWIDTH 834 0
DWIDTH 20 0
BBX 20 40 0 -3
BITMAP
000000
000000
000000
000000
000000
000000
000000
000000
000380
000780
000780
000f00
000f00
001e00
001e00
003c00
003c00
007800
007800
00f000
00f000
01e000
01e000
03c000
03c000
078000
078000
0f0000
0f0000
1e0000
1e0000
1c0000
000000
000000
000000
000000
000000
000000
000000
000000
ENDCHAR
STARTCHAR DIGIT ZERO
ENCODING 48
SWIDTH 834 0
DWIDTH 20 0
BBX 20 40 0 -3
BITMAP
000000
000000
000000
000000
000000
000000
000000
000000
01f800
03fc00
07fe00
0fff00
1f9f80
1f0f80
1e0780
1e0f80
1e1f80
1e3f80
1e7f80
1ef780
1fe780
1fc780
1f8780
1f0780
1e0780
1e0780
1f0f80
1f9f80
0fff00
07fe00
03fc00
01f800
000000
000000
000000
000000
000000
000000
000000
000000
ENDCHAR
STARTCHAR DIGIT ONE
ENCODING 49
SWIDTH 834 0
DWIDTH 20 0
BBX 20 40 0 -3
BITMAP
000000
000000
000000
000000
000000
000000
000000
000000
00f000
00f000
03f000
07f000
07f000
1ff000
1ef000
1cf000
00f000
00f000
00f000
00f000
00f000
00f000
00f000
00f000
00f000
00f000
00f000
00f000
1fff80
1fff80
1fff80
1fff80
000000
000000
000000
000000
000000
000000
000000
000000
ENDCHAR
STARTCHAR DIGIT TWO
ENCODING 50
SWIDTH 834 0
DWIDTH 20 0
BBX 20 40 0 -3
BITMAP
000000
000000
000000
000000
000000
000000
000000
000000
01fe00
03fe00
07ff80
0fffc0
1e07e0
1e03e0
1e01e0
0001e0
0003c0
0007c0
000f80
001f00
003e00
007c00
00f800
01f000
03e000
07c000
0f8000
1f0000
1fffc0
1fffe0
1fffe0
1fffc0
000000
000000
000000
000000
000000
000000
000000
000000
ENDCHAR
STARTCHAR DIGIT THREE
ENCODING 51
SWIDTH 834 0
DWIDTH 20 0
BBX 20 40 0 -3
BITMAP
000000
000000
000000
000000
000000
000000
000000
000000
01fe00
03ff00
07ff80
0fffc0
1f07e0
1e03e0
1c01e0
0001e0
0003c0
000780
007f00
00fe00
00ff80
007fc0
0001e0
0001e0
0001e0
1c01e0
1e03e0
1f07e0
0fffc0
07ff80
03ff00
01fe00
000000
000000
000000
000000
000000
000000
000000
000000
ENDCHAR
STARTCHAR DIGIT FOUR
ENCODING 52
SWIDTH 834 0
DWIDTH 20 0
BBX 20 40 0 -3
BITMAP
000000
000000
000000
000000
000000
000000
000000
000000
003c00
003c00
007800
007800
00f000
00f000
01e000
01fe00
03de00
03de00
079e00
079e00
0f1e00
0f1e00
1e1e00
1fffc0
1fffe0
1fffe0
1fffc0
001e00
001e00
001e00
001e00
001e00
000000
000000
000000
000000
000000
000000
000000
000000
ENDCHAR
STARTCHAR DIGIT FIVE
ENCODING 53
SWIDTH 834 0
DWIDTH 20 0
BBX 20 40 0 -3
BITMAP
000000
000000
000000
000000
000000
000000
000000
000000
1fff80
1fff80
1fff80
1fff80
1e0000
1e0000
1e0000
1e0000
1ffe00
1fff00
1fff80
1fffc0
0007e0
0003e0
0001e0
0001e0
0001e0
1c01e0
1e03e0
1f07e0
0fffc0
07ff80
03ff00
01fe00
000000
000000
000000
000000
000000
000000
000000
000000
ENDCHAR
STARTCHAR DIGIT SIX
ENCODING 54
SWIDTH 834 0
DWIDTH 20 0
BBX 20 40 0 -3
BITMAP
000000
000000
000000
000000
000000
000000
000000
000000
01fe00
03ff00
07ff80
0fffc0
1f83e0
1f01e0
1e00e0
1e0000
1e7c00
1efe00
1fff00
1fff80
1f87c0
1f03e0
1e01e0
1e01e0
1e01e0
1e01e0
1f03e0
1f87e0
0fffc0
07ff80
03ff00
01fe00
000000
000000
000000
000000
000000
000000
000000
000000
ENDCHAR
STARTCHAR DIGIT SEVEN
ENCODING 55
SWIDTH 834 0
DWIDTH 20 0
BBX 20 40 0 -3
BITMAP
000000
000000
000000
000000
000000
000000
000000
000000
1fffc0
1fffe0
1fffe0
1fffc0
0007c0
000780
000f80
000f00
001f00
001e00
003e00
003c00
007c00
007800
00f800
00f000
01f000
01e000
03e000
03c000
07c000
078000
0f8000
0f0000
0f0000
000000
000000
000000
000000
000000
000000
000000
ENDCHAR
STARTCHAR DIGIT EIGHT
ENCODING 56
SWIDTH 834 0
DWIDTH 20 0
BBX 20 40 0 -3
BITMAP
000000
000000
000000
000000
000000
000000
000000
000000
01f800
03fc00
07fe00
0fff00
1f0f80
1e0780
1e0780
1f0f80
1fff80
0fff00
07fe00
0fff00
1f9f80
3f0fc0
7e07e0
7c03e0
7801e0
7801e0
7c03e0
7e07e0
7fffc0
1fff80
0fff00
07fe00
000000
000000
000000
000000
000000
000000
000000
000000
ENDCHAR
STARTCHAR DIGIT NINE
ENCODING 57
SWIDTH 834 0
DWIDTH 20 0
BBX 20 40 0 -3
BITMAP
000000
000000
000000
000000
000000
000000
000000
000000
01fe00
03ff00
07ff80
0fffc0
1f87e0
1f03e0
1e01e0
1e01e0
1f03e0
1f87e0
0fffe0
07ffe0
03fde0
01f9e0
0001e0
0001e0
0001e0
1c01e0
1e03e0
1f07e0
0fffc0
07ff80
03ff00
01fe00
000000
000000
000000
000000
000000
000000
000000
000000
ENDCHAR
STARTCHAR COLON
ENCODING 58
SWIDTH 834 0
DWIDTH 20 0
BBX 20 40 0 -3
BITMAP
000000
000000
000000
000000
000000
000000
000000
000000
000000
000000
000000
000000
000000
00f000
01f800
03fc00
03fc00
03fc00
01f800
00f000
000000
000000
000000
000000
000000
00f000
01f800
03fc00
03fc00
03fc00
01f800
00f000
000000
000000
000000
000000
000000
000000
000000
000000
ENDCHAR
STARTCHAR SEMICOLON
ENCODING 59
SWIDTH 834 0
DWIDTH 20 0
BBX 20 40 0 -3
BITMAP
000000
000000
000000
000000
000000
000000
000000
000000
000000
000000
000000
000000
000000
00f000
01f800
03fc00
03fc00
03fc00
01f800
00f000
000000
000000
000000
000000
000000
00f000
01f800
03fc00
03fc00
03fc00
007c00
003c00
003c00
007800
00f000
03e000
01c000
000000
000000
000000
ENDCHAR
STARTCHAR LESS-THAN SIGN
ENCODING 60
SWIDTH 834 0
DWIDTH 20 0
BBX 20 40 0 -3
BITMAP
000000
000000
000000
000000
000000
000000
000000
000000
000000
000000
000000
000000
000000
0001e0
0007e0
001f80
007f00
01fc00
07f800
1fe000
7f8000
7f0000
7f8000
3fe000
07f800
01fe00
007f80
001fc0
0007e0
0001e0
000000
000000
000000
000000
000000
000000
000000
000000
000000
000000
ENDCHAR
STARTCHAR EQUALS SIGN
ENCODING 61
SWIDTH 834 0
DWIDTH 20 0
BBX 20 40 0 -3
BITMAP
000000
000000
000000
000000
000000
000000
000000
000000
000000
000000
000000
000000
000000
000000
000000
000000
7fffe0
7fffe0
7fffe0
7fffe0
000000
000000
000000
7fffe0
7fffe0
7fffe0
7fffe0
000000
000000
000000
000000
000000
000000
000000
000000
000000
000000
000000
000000
000000
ENDCHAR
STARTCHAR GREATER-THAN SIGN
ENCODING 62
SWIDTH 834 0
DWIDTH 20 0
BBX 20 40 0 -3
BITMAP
000000
000000
000000
000000
000000
000000
000000
000000
000000
000000
000000
000000
000000
780000
7e0000
3f8000
0fe000
03f800
01fe00
007f80
001fe0
000fe0
001fe0
007f80
00fe00
03f800
07e000
1f8000
3e0000
780000
700000
000000
000000
000000
000000
000000
000000
000000
000000
000000
ENDCHAR
STARTCHAR QUESTION MARK
ENCODING 63
SWIDTH 834 0
DWIDTH 20 0
BBX 20 40 0 -3
BITMAP
000000
000000
000000
000000
000000
000000
000000
000000
01f800
03fc00
07fe00
0fff00
1f9f80
1e0f80
180780
000780
000f80
001f00
003e00
007c00
00f800
00f000
00f000
00f000
00f000
000000
000000
000000
00f000
01f800
03fc00
01f800
00f000
006000
000000
000000
000000
000000
000000
000000
ENDCHAR
STARTCHAR COMMERCIAL AT
ENCODING 64
SWIDTH 834 0
DWIDTH 20 0
BBX 20 40 0 -3
BITMAP
000000
000000
000000
000000
000000
000000
000000
000000
01fe00
03ff00
07ff80
0fffc0
1f83e0
1f01e0
1e01e0
1e3fe0
1e7fe0
1effe0
1ef3e0
1ee1e0
1ee1e0
1ee1e0
1ef1e0
1ef9e0
1e7fe0
1e3fc0
1f3f80
1f8000
0fffc0
07ffe0
03ffe0
01ffc0
000000
000000
000000
000000
000000
000000
000000
000000
ENDCHAR
STARTCHAR CAPITAL LETTER A
ENCODING 65
SWIDTH 834 0
DWIDTH 20 0
BBX 20 40 0 -3
BITMAP
000000
000000
000000
000000
000000
000000
000000
000000
01fe00
03fe00
07ff80
0fffc0
1f87e0
1f03e0
1e01e0
1e01e0
1e01e0
1e01e0
1fffe0
1fffe0
1fffe0
1fffe0
1e01e0
1e01e0
1e01e0
1e01e0
1e01e0
1e01e0
1e01e0
1e01e0
1e01e0
1e01e0
000000
000000
000000
000000
000000
000000
000000
000000
ENDCHAR
STARTCHAR CAPITAL LETTER B
ENCODING 66
SWIDTH 834 0
DWIDTH 20 0
BBX 20 40 0 -3
BITMAP
000000
000000
000000
000000
000000
000000
000000
000000
1ff800
1ffc00
1ffe00
1fff00
1e1f80
1e0f80
1e0780
1e0780
1e0f80
1e1f00
1ffe00
1fff00
1fff80
1fff80
1e07c0
1e03c0
1e01e0
1e01e0
1e03e0
1e07e0
1fffc0
1fff80
1fff00
1ffe00
000000
000000
000000
000000
000000
000000
000000
000000
ENDCHAR
STARTCHAR CAPITAL LETTER C
ENCODING 67
SWIDTH 834 0
DWIDTH 20 0
BBX 20 40 0 -3
BITMAP
000000
000000
000000
000000
000000
000000
000000
000000
01fe00
03ff00
07ff80
0fffc0
1f87e0
1f03e0
1e01e0
1e0000
1e0000
1e0000
1e0000
1e0000
1e0000
1e0000
1e0000
1e0000
1e0000
1e01e0
1f03e0
1f87e0
0fffc0
07ff80
03ff00
01fe00
000000
000000
000000
000000
000000
000000
000000
000000
ENDCHAR
STARTCHAR CAPITAL LETTER D
ENCODING 68
SWIDTH 834 0
DWIDTH 20 0
BBX 20 40 0 -3
BITMAP
000000
000000
000000
000000
000000
000000
000000
000000
1ffe00
1fff00
1fff80
1fffc0
1e07e0
1e03e0
1e01e0
1e01e0
1e01e0
1e01e0
1e01e0
1e01e0
1e01e0
1e01e0
1e01e0
1e01e0
1e01e0
1e01e0
1e03e0
1e07e0
1fffc0
1fff80
1fff00
1ffe00
000000
000000
000000
000000
000000
000000
000000
000000
ENDCHAR
STARTCHAR CAPITAL LETTER E
ENCODING 69
SWIDTH 834 0
DWIDTH 20 0
BBX 20 40 0 -3
BITMAP
000000
000000
000000
000000
000000
000000
000000
000000
1fffc0
1fffe0
1fffe0
1fffc0
1e0000
1e0000
1e0000
1e0000
1e0000
1e0000
1ffe00
1ffe00
1ffe00
1ffe00
1e0000
1e0000
1e0000
1e0000
1e0000
1e0000
1fffc0
1fffe0
1fffe0
1fffc0
000000
000000
000000
000000
000000
000000
000000
000000
ENDCHAR
STARTCHAR CAPITAL LETTER F
ENCODING 70
SWIDTH 834 0
DWIDTH 20 0
BBX 20 40 0 -3
BITMAP
000000
000000
000000
000000
000000
000000
000000
000000
1fffc0
1fffe0
1fffe0
1fffc0
1e0000
1e0000
1e0000
1e0000
1e0000
1e0000
1ffe00
1ffe00
1ffe00
1ffe00
1e0000
1e0000
1e0000
1e0000
1e0000
1e0000
1e0000
1e0000
1e0000
1e0000
000000
000000
000000
000000
000000
000000
000000
000000
ENDCHAR
STARTCHAR CAPITAL LETTER G
ENCODING 71
SWIDTH 834 0
DWIDTH 20 0
BBX 20 40 0 -3
BITMAP
000000
000000
000000
000000
000000
000000
000000
000000
01fe00
03ff00
07ff80
0fffc0
1f87e0
1f03e0
1e01e0
1e0000
1e0000
1e0000
1e0000
1e0000
1e1fe0
1e1fe0
1e1fe0
1e0fe0
1e01e0
1e01e0
1f03e0
1f87e0
0fffc0
07ff80
03fe00
01fe00
000000
000000
000000
000000
000000
000000
000000
000000
ENDCHAR
STARTCHAR CAPITAL LETTER H
ENCODING 72
SWIDTH 834 0
DWIDTH 20 0
BBX 20 40 0 -3
BITMAP
000000
000000
000000
000000
000000
000000
000000
000000
1e01e0
1e01e0
1e01e0
1e01e0
1e01e0
1e01e0
1e01e0
1e01e0
1e01e0
1e01e0
1fffe0
1fffe0
1fffe0
1fffe0
1e01e0
1e01e0
1e01e0
1e01e0
1e01e0
1e01e0
1e01e0
1e01e0
1e01e0
1e01e0
000000
000000
000000
000000
000000
000000
000000
000000
ENDCHAR
STARTCHAR CAPITAL LETTER I
ENCODING 73
SWIDTH 834 0
DWIDTH 20 0
BBX 20 40 0 -3
BITMAP
000000
000000
000000
000000
000000
000000
000000
000000
07fe00
07fe00
07fe00
07fe00
00f000
00f000
00f000
00f000
00f000
00f000
00f000
00f000
00f000
00f000
00f000
00f000
00f000
00f000
00f000
00f000
07fe00
07fe00
07fe00
07fe00
000000
000000
000000
000000
000000
000000
000000
000000
ENDCHAR
STARTCHAR CAPITAL LETTER J
ENCODING 74
SWIDTH 834 0
DWIDTH 20 0
BBX 20 40 0 -3
BITMAP
000000
000000
000000
000000
000000
000000
000000
000000
0001e0
0001e0
0001e0
0001e0
0001e0
0001e0
0001e0
0001e0
0001e0
0001e0
0001e0
0001e0
0001e0
0001e0
0001e0
0001e0
0001e0
1e01e0
1e03e0
1f07e0
0fffc0
07ff80
03ff00
01fe00
000000
000000
000000
000000
000000
000000
000000
000000
ENDCHAR
STARTCHAR CAPITAL LETTER K
ENCODING 75
SWIDTH 834 0
DWIDTH 20 0
BBX 20 40 0 -3
BITMAP
000000
000000
000000
000000
000000
000000
000000
000000
1e01e0
1e03e0
1e07c0
1e0f80
1e1f00
1e3e00
1e7c00
1ef800
1ff000
1fe000
1fc000
1f8000
1fc000
1fe000
1ff000
1ef800
1e7c00
1e3e00
1e1f00
1e0f80
1e07c0
1e03e0
1e01e0
1e00e0
000000
000000
000000
000000
000000
000000
000000
000000
ENDCHAR
STARTCHAR CAPITAL LETTER L
ENCODING 76
SWIDTH 834 0
DWIDTH 20 0
BBX 20 40 0 -3
BITMAP
000000
000000
000000
000000
000000
000000
000000
000000
1e0000
1e0000
1e0000
1e0000
1e0000
1e0000
1e0000
1e0000
1e0000
1e0000
1e0000
1e0000
1e0000
1e0000
1e0000
1e0000
1e0000
1e0000
1e0000
1e0000
1fffc0
1fffe0
1fffe0
1fffc0
000000
000000
000000
000000
000000
000000
000000
000000
ENDCHAR
STARTCHAR CAPITAL LETTER M
ENCODING 77
SWIDTH 834 0
DWIDTH 20 0
BBX 20 40 0 -3
BITMAP
000000
000000
000000
000000
000000
000000
000000
000000
1e01e0
1e01e0
1f03e0
1f03e0
1f87e0
1f87e0
1fcfe0
1fcfe0
1fffe0
1fffe0
1efde0
1efde0
1e79e0
1e31e0
1e01e0
1e01e0
1e01e0
1e01e0
1e01e0
1e01e0
1e01e0
1e01e0
1e01e0
1e01e0
000000
000000
000000
000000
000000
000000
000000
000000
ENDCHAR
STARTCHAR CAPITAL LETTER N
ENCODING 78
SWIDTH 834 0
DWIDTH 20 0
BBX 20 40 0 -3
BITMAP
000000
000000
000000
000000
000000
000000
000000
000000
1e01e0
1f01e0
1f01e0
1f81e0
1f81e0
1fc1e0
1fc1e0
1fe1e0
1fe1e0
1ef1e0
1ef1e0
1e79e0
1e79e0
1e3de0
1e3de0
1e1fe0
1e1fe0
1e0fe0
1e0fe0
1e07e0
1e07e0
1e03e0
1e03e0
1e01e0
000000
000000
000000
000000
000000
000000
000000
000000
ENDCHAR
STARTCHAR CAPITAL LETTER O
ENCODING 79
SWIDTH 834 0
DWIDTH 20 0
BBX 20 40 0 -3
BITMAP
000000
000000
000000
000000
000000
000000
000000
000000
01fe00
03ff00
07ff80
0fffc0
1f87e0
1f03e0
1e01e0
1e01e0
1e01e0
1e01e0
1e01e0
1e01e0
1e01e0
1e01e0
1e01e0
1e01e0
1e01e0
1e01e0
1f03e0
1f87e0
0fffc0
07ff80
03ff00
01fe00
000000
000000
000000
000000
000000
000000
000000
000000
ENDCHAR
STARTCHAR CAPITAL LETTER P
ENCODING 80
SWIDTH 834 0
DWIDTH 20 0
BBX 20 40 0 -3
BITMAP
000000
000000
000000
000000
000000
000000
000000
000000
1ffe00
1fff00
1fff80
1fffc0
1e07e0
1e03e0
1e01e0
1e01e0
1e03e0
1e07e0
1fffc0
1fff80
1fff00
1ffe00
1e0000
1e0000
1e0000
1e0000
1e0000
1e0000
1e0000
1e0000
1e0000
1e0000
000000
000000
000000
000000
000000
000000
000000
000000
ENDCHAR
STARTCHAR CAPITAL LETTER Q
ENCODING 81
SWIDTH 834 0
DWIDTH 20 0
BBX 20 40 0 -3
BITMAP
000000
000000
000000
000000
000000
000000
000000
000000
01fe00
03ff00
07ff80
0fffc0
1f87e0
1f03e0
1e01e0
1e01e0
1e01e0
1e01e0
1e01e0
1e01e0
1e01e0
1e01e0
1e01e0
1e01e0
1e01e0
1e1fe0
1f1fe0
1f9fe0
0fffc0
07ff80
03fff0
01fff0
0000f0
000070
000000
000000
000000
000000
000000
000000
ENDCHAR
STARTCHAR CAPITAL LETTER R
ENCODING 82
SWIDTH 834 0
DWIDTH 20 0
BBX 20 40 0 -3
BITMAP
000000
000000
000000
000000
000000
000000
000000
000000
1ffe00
1fff00
1fff80
1fffc0
1e07e0
1e03e0
1e01e0
1e01e0
1e03e0
1e07e0
1fffc0
1fff80
1fff00
1ffe00
1e1e00
1e1e00
1e0f00
1e0f00
1e0780
1e07c0
1e03c0
1e03e0
1e01e0
1e01c0
000000
000000
000000
000000
000000
000000
000000
000000
ENDCHAR
STARTCHAR CAPITAL LETTER S
ENCODING 83
SWIDTH 834 0
DWIDTH 20 0
BBX 20 40 0 -3
BITMAP
000000
000000
000000
000000
000000
000000
000000
000000
01fe00
03ff00
07ff80
0fffc0
1f87e0
1f03e0
1e01e0
1e0000
1f0000
1f8000
0ffe00
07ff00
03ff80
01ffc0
0007e0
0003e0
0001e0
1e01e0
1e03e0
1f07e0
1fffc0
1fff80
07ff00
07fe00
000000
000000
000000
000000
000000
000000
000000
000000
ENDCHAR
STARTCHAR CAPITAL LETTER T
ENCODING 84
SWIDTH 834 0
DWIDTH 20 0
BBX 20 40 0 -3
BITMAP
000000
000000
000000
000000
000000
000000
000000
000000
3fffc0
7fffe0
7fffe0
3fffc0
00f000
00f000
00f000
00f000
00f000
00f000
00f000
00f000
00f000
00f000
00f000
00f000
00f000
00f000
00f000
00f000
00f000
00f000
00f000
00f000
000000
000000
000000
000000
000000
000000
000000
000000
ENDCHAR
STARTCHAR CAPITAL LETTER U
ENCODING 85
SWIDTH 834 0
DWIDTH 20 0
BBX 20 40 0 -3
BITMAP
000000
000000
000000
000000
000000
000000
000000
000000
1e01e0
1e01e0
1e01e0
1e01e0
1e01e0
1e01e0
1e01e0
1e01e0
1e01e0
1e01e0
1e01e0
1e01e0
1e01e0
1e01e0
1e01e0
1e01e0
1e01e0
1e01e0
1f03e0
1f87e0
0fffc0
07ff80
03ff00
01fe00
000000
000000
000000
000000
000000
000000
000000
000000
ENDCHAR
STARTCHAR CAPITAL LETTER V
ENCODING 86
SWIDTH 834 0
DWIDTH 20 0
BBX 20 40 0 -3
BITMAP
000000
000000
000000
000000
000000
000000
000000
000000
3801c0
7801e0
7801e0
7c03e0
7c03e0
3c03c0
3e0780
1e0780
1e0780
1e0780
0f0f00
0f0f00
0f0f00
079e00
079e00
079e00
039c00
03fc00
03fc00
01f800
01f800
01f800
00f000
00f000
000000
000000
000000
000000
000000
000000
000000
000000
ENDCHAR
STARTCHAR CAPITAL LETTER W
ENCODING 87
SWIDTH 834 0
DWIDTH 20 0
BBX 20 40 0 -3
BITMAP
000000
000000
000000
000000
000000
000000
000000
000000
1e01e0
1e01e0
1e01e0
1e01e0
1e01e0
1e01e0
1e01e0
1e01e0
1e01e0
1e31e0
1e31e0
1e79e0
1e79e0
1efde0
1efde0
1fffe0
1fcfe0
1fcfe0
1f87e0
1f87e0
1f03e0
1f03e0
1e01e0
1e01e0
000000
000000
000000
000000
000000
000000
000000
000000
ENDCHAR
STARTCHAR CAPITAL LETTER X
ENCODING 88
SWIDTH 834 0
DWIDTH 20 0
BBX 20 40 0 -3
BITMAP
000000
000000
000000
000000
000000
000000
000000
000000
1e01e0
1e01e0
1f03e0
1f03e0
0f87c0
078780
078780
03cf00
03cf00
01fe00
01fe00
00fc00
00fc00
01fe00
01fe00
03cf00
03cf00
078780
078780
0f87c0
1f03e0
1f03e0
1e01e0
1e01e0
000000
000000
000000
000000
000000
000000
000000
000000
ENDCHAR
STARTCHAR CAPITAL LETTER Y
ENCODING 89
SWIDTH 834 0
DWIDTH 20 0
BBX 20 40 0 -3
BITMAP
000000
000000
000000
000000
000000
000000
000000
000000
7801e0
7801e0
7c03e0
3c03c0
3e07c0
1e0780
1f0f80
0f0f00
0f9f00
07fe00
07fe00
03fc00
03fc00
01f800
00f000
00f000
00f000
00f000
00f000
00f000
00f000
00f000
00f000
00f000
000000
000000
000000
000000
000000
000000
000000
000000
ENDCHAR
STARTCHAR CAPITAL LETTER Z
ENCODING 90
SWIDTH 834 0
DWIDTH 20 0
BBX 20 40 0 -3
BITMAP
000000
000000
000000
000000
000000
000000
000000
000000
3fffc0
7fffe0
7fffe0
3fffe0
0001e0
0003e0
0007e0
000fc0
001f80
003f00
007e00
00fc00
01f800
03f000
07e000
0fc000
1f8000
3f0000
7e0000
7c0000
7fffc0
7fffe0
7fffe0
3fffc0
000000
000000
000000
000000
000000
000000
000000
000000
ENDCHAR
STARTCHAR LEFT SQUARE BRACKET
ENCODING 91
SWIDTH 834 0
DWIDTH 20 0
BBX 20 40 0 -3
BITMAP
000000
000000
000000
000000
000000
000000
01fe00
03fe00
03fe00
03fe00
03c000
03c000
03c000
03c000
03c000
03c000
03c000
03c000
03c000
03c000
03c000
03c000
03c000
03c000
03c000
03c000
03c000
03c000
03fe00
03fe00
03fe00
01fe00
000000
000000
000000
000000
000000
000000
000000
000000
ENDCHAR
STARTCHAR REVERSE SOLIDUS
ENCODING 92
SWIDTH 834 0
DWIDTH 20 0
BBX 20 40 0 -3
BITMAP
000000
000000
000000
000000
000000
000000
000000
000000
1e0000
1e0000
1f0000
1f0000
0f8000
0f8000
07c000
07c000
03e000
03e000
01f000
01f000
00f800
00f800
007c00
007c00
003e00
003e00
001f00
001f00
000f80
000f80
000780
000780
000000
000000
000000
000000
000000
000000
000000
000000
ENDCHAR
STARTCHAR RIGHT SQUARE BRACKET
ENCODING 93
SWIDTH 834 0
DWIDTH 20 0
BBX 20 40 0 -3
BITMAP
000000
000000
000000
000000
000000
000000
07f800
07fc00
07fc00
07fc00
003c00
003c00
003c00
003c00
003c00
003c00
003c00
003c00
003c00
003c00
003c00
003c00
003c00
003c00
003c00
003c00
003c00
003c00
07fc00
07fc00
07fc00
07f800
000000
000000
000000
000000
000000
000000
000000
000000
ENDCHAR
STARTCHAR CIRCUMFLEX ACCENT
ENCODING 94
SWIDTH 834 0
DWIDTH 20 0
BBX 20 40 0 -3
BITMAP
000000
000000
000000
000000
000000
000000
002000
007000
00f800
01fc00
03de00
078f00
0f0780
1e03c0
3c01e0
000000
000000
000000
000000
000000
000000
000000
000000
000000
000000
000000
000000
000000
000000
000000
000000
000000
000000
000000
000000
000000
000000
000000
000000
000000
ENDCHAR
STARTCHAR LOW LINE
ENCODING 95
SWIDTH 834 0
DWIDTH 20 0
BBX 20 40 0 -3
BITMAP
000000
000000
000000
000000
000000
000000
000000
000000
000000
000000
000000
000000
000000
000000
000000
000000
000000
000000
000000
000000
000000
000000
000000
000000
000000
000000
000000
000000
000000
000000
000000
000000
000000
fffff0
fffff0
fffff0
fffff0
000000
000000
000000
ENDCHAR
STARTCHAR GRAVE ACCENT
ENCODING 96
SWIDTH 834 0
DWIDTH 20 0
BBX 20 40 0 -3
BITMAP
000000
000000
000000
000000
000000
003c00
007800
00f000
01e000
03c000
038000
03d800
03fc00
03fc00
03fc00
01f800
00f000
000000
000000
000000
000000
000000
000000
000000
000000
000000
000000
000000
000000
000000
000000
000000
000000
000000
000000
000000
000000
000000
000000
000000
ENDCHAR
STARTCHAR SMALL LETTER a
ENCODING 97
SWIDTH 834 0
DWIDTH 20 0
BBX 20 40 0 -3
BITMAP
000000
000000
000000
000000
000000
000000
000000
000000
000000
000000
000000
000000
000000
00fe00
01ff00
03ff80
07ffc0
0783e0
0701e0
0001e0
003fe0
07ffe0
0fffe0
1fffe0
1e01e0
1e03e0
1e07e0
1e0fe0
1fffe0
1ffde0
0ff9e0
07f1c0
000000
000000
000000
000000
000000
000000
000000
000000
ENDCHAR
STARTCHAR SMALL LETTER b
ENCODING 98
SWIDTH 834 0
DWIDTH 20 0
BBX 20 40 0 -3
BITMAP
000000
000000
000000
000000
000000
000000
000000
000000
1e0000
1e0000
1e0000
1e0000
1e0000
1e0000
1e0000
1e3e00
1e7f00
1eff80
1fffc0
1fc7e0
1f83e0
1f01e0
1e01e0
1e01e0
1f01e0
1f81e0
1fc3e0
1fe7e0
1fffc0
1eff80
1e7f00
1e3e00
000000
000000
000000
000000
000000
000000
000000
000000
ENDCHAR
STARTCHAR SMALL LETTER c
ENCODING 99
SWIDTH 834 0
DWIDTH 20 0
BBX 20 40 0 -3
BITMAP
000000
000000
000000
000000
000000
000000
000000
000000
000000
000000
000000
000000
000000
000000
000000
03ff80
07ff80
0fffc0
1fffc0
1f83e0
1f01e0
1e01c0
1e0000
1e0000
1e0000
1e0000
1f01c0
1f83e0
0fffe0
07ffe0
03ffc0
01ff80
000000
000000
000000
000000
000000
000000
000000
000000
ENDCHAR
STARTCHAR SMALL LETTER d
ENCODING 100
SWIDTH 834 0
DWIDTH 20 0
BBX 20 40 0 -3
BITMAP
000000
000000
000000
000000
000000
000000
000000
000000
0001c0
0001e0
0001e0
0001e0
0001e0
0001e0
0001e0
03fde0
07ffe0
0fffe0
1fffe0
1f87e0
1f03e0
1e01e0
1e01e0
1e01e0
1e01e0
1e03e0
1f07e0
1f8fe0
0fffe0
07ffe0
03fde0
01f9c0
000000
000000
000000
000000
000000
000000
000000
000000
ENDCHAR
STARTCHAR SMALL LETTER e
ENCODING 101
SWIDTH 834 0
DWIDTH 20 0
BBX 20 40 0 -3
BITMAP
000000
000000
000000
000000
000000
000000
000000
000000
000000
000000
000000
000000
000000
000000
000000
03fe00
07ff00
0fff80
1fffc0
1f81e0
1e01e0
1fffe0
1fffe0
1fffc0
1fff80
1e0000
1e01c0
1e01e0
0fffe0
07ffe0
03ffc0
01ff80
000000
000000
000000
000000
000000
000000
000000
000000
ENDCHAR
STARTCHAR SMALL LETTER f
ENCODING 102
SWIDTH 834 0
DWIDTH 20 0
BBX 20 40 0 -3
BITMAP
000000
000000
000000
000000
000000
000000
000000
000000
003e00
007e00
00fe00
00fe00
00f800
00f000
00f000
00f000
07fe00
07fe00
07fe00
07fe00
00f000
00f000
00f000
00f000
00f000
00f000
00f000
00f000
00f000
00f000
00f000
00f000
000000
000000
000000
000000
000000
000000
000000
000000
ENDCHAR
STARTCHAR SMALL LETTER g
ENCODING 103
SWIDTH 834 0
DWIDTH 20 0
BBX 20 40 0 -3
BITMAP
000000
000000
000000
000000
000000
000000
000000
000000
000000
000000
000000
000000
000000
000000
000000
03f9e0
07fde0
0fffe0
1fffe0
1f9fe0
1f07e0
1e03e0
1e01e0
1e01e0
1e01e0
1e01e0
1f03e0
1f87e0
0fffe0
07ffe0
03fde0
01f9e0
0001e0
0001e0
0001e0
0783e0
07ffc0
03ff80
01ff00
00fe00
ENDCHAR
STARTCHAR SMALL LETTER h
ENCODING 104
SWIDTH 834 0
DWIDTH 20 0
BBX 20 40 0 -3
BITMAP
000000
000000
000000
000000
000000
000000
000000
000000
1e0000
1e0000
1e0000
1e0000
1e0000
1e0000
1e0000
1e7e00
1eff00
1fff80
1fffc0
1fc7e0
1f83e0
1f01e0
1e01e0
1e01e0
1e01e0
1e01e0
1e01e0
1e01e0
1e01e0
1e01e0
1e01e0
1e01e0
000000
000000
000000
000000
000000
000000
000000
000000
ENDCHAR
STARTCHAR SMALL LETTER i
ENCODING 105
SWIDTH 834 0
DWIDTH 20 0
BBX 20 40 0 -3
BITMAP
000000
000000
000000
000000
000000
000000
000000
000000
00f000
00f000
00f000
00f000
000000
000000
000000
00f000
00f000
00f000
00f000
00f000
00f000
00f000
00f000
00f000
00f000
00f000
00f000
00f000
00f000
00f000
00f000
00f000
000000
000000
000000
000000
000000
000000
000000
000000
ENDCHAR
STARTCHAR SMALL LETTER j
ENCODING 106
SWIDTH 834 0
DWIDTH 20 0
BBX 20 40 0 -3
BITMAP
000000
000000
000000
000000
000000
000000
000000
000000
00f000
00f000
00f000
00f000
000000
000000
000000
00f000
00f000
00f000
00f000
00f000
00f000
00f000
00f000
00f000
00f000
00f000
00f000
00f000
00f000
00f000
00f000
00f000
00f000
00f000
01f000
1ff000
1ff000
1fc000
0f0000
000000
ENDCHAR
STARTCHAR SMALL LETTER k
ENCODING 107
SWIDTH 834 0
DWIDTH 20 0
BBX 20 40 0 -3
BITMAP
000000
000000
000000
000000
000000
000000
000000
000000
000000
000000
1e0000
1e0000
1e0000
1e0380
1e0780
1e0f80
1e1f00
1e3e00
1e7c00
1ef800
1ff000
1fe000
1fc000
1fe000
1ff000
1ff800
1efc00
1e7e00
1e3f80
1e1f80
1e0f80
1e0780
000000
000000
000000
000000
000000
000000
000000
000000
ENDCHAR
STARTCHAR SMALL LETTER l
ENCODING 108
SWIDTH 834 0
DWIDTH 20 0
BBX 20 40 0 -3
BITMAP
000000
000000
000000
000000
000000
000000
000000
000000
00f000
00f000
00f000
00f000
00f000
00f000
00f000
00f000
00f000
00f000
00f000
00f000
00f000
00f000
00f000
00f000
00f000
00f000
00f000
00f800
00fe00
00fe00
007e00
003e00
000000
000000
000000
000000
000000
000000
000000
000000
ENDCHAR
STARTCHAR SMALL LETTER m
ENCODING 109
SWIDTH 834 0
DWIDTH 20 0
BBX 20 40 0 -3
BITMAP
000000
000000
000000
000000
000000
000000
000000
000000
000000
000000
000000
000000
000000
380000
780000
7bdf80
7fffc0
7fffe0
7fffe0
78f1e0
78f1e0
78f1e0
78f1e0
78f1e0
78f1e0
78f1e0
78f1e0
78f1e0
78f1e0
78f1e0
78f1e0
38f1c0
000000
000000
000000
000000
000000
000000
000000
000000
ENDCHAR
STARTCHAR SMALL LETTER n
ENCODING 110
SWIDTH 834 0
DWIDTH 20 0
BBX 20 40 0 -3
BITMAP
000000
000000
000000
000000
000000
000000
000000
000000
000000
000000
000000
000000
000000
000000
000000
1e3e00
1e7f00
1eff80
1fffc0
1fc3e0
1f81e0
1f01e0
1e01e0
1e01e0
1e01e0
1e01e0
1e01e0
1e01e0
1e01e0
1e01e0
1e01e0
1e01c0
000000
000000
000000
000000
000000
000000
000000
000000
ENDCHAR
STARTCHAR SMALL LETTER o
ENCODING 111
SWIDTH 834 0
DWIDTH 20 0
BBX 20 40 0 -3
BITMAP
000000
000000
000000
000000
000000
000000
000000
000000
000000
000000
000000
000000
000000
000000
000000
03fe00
07ff00
0fff80
1fffc0
1f03e0
1e01e0
1e01e0
1e01e0
1e01e0
1e01e0
1e01e0
1f03e0
1f87e0
0fffc0
07ff80
03ff00
01fe00
000000
000000
000000
000000
000000
000000
000000
000000
ENDCHAR
STARTCHAR SMALL LETTER p
ENCODING 112
SWIDTH 834 0
DWIDTH 20 0
BBX 20 40 0 -3
BITMAP
000000
000000
000000
000000
000000
000000
000000
000000
000000
000000
000000
000000
000000
000000
000000
1e3e00
1e7f00
1eff80
1fffc0
1fc7e0
1f83e0
1f01e0
1e01e0
1e01e0
1e01e0
1f01e0
1f83e0
1fc7e0
1fffc0
1eff80
1e7f00
1e3e00
1e0000
1e0000
1e0000
1e0000
1e0000
1e0000
0c0000
000000
ENDCHAR
STARTCHAR SMALL LETTER q
ENCODING 113
SWIDTH 834 0
DWIDTH 20 0
BBX 20 40 0 -3
BITMAP
000000
000000
000000
000000
000000
000000
000000
000000
000000
000000
000000
000000
000000
000000
000000
03f1e0
07f9e0
0ffde0
1fffe0
1f1fe0
1e07e0
1e03e0
1e01e0
1e01e0
1e01e0
1e07e0
1f0fe0
1f9fe0
0fffe0
07fde0
03f9e0
01f1e0
0001e0
0001e0
0001e0
0001e0
0001e0
0001e0
0001c0
000000
ENDCHAR
STARTCHAR SMALL LETTER r
ENCODING 114
SWIDTH 834 0
DWIDTH 20 0
BBX 20 40 0 -3
BITMAP
000000
000000
000000
000000
000000
000000
000000
000000
000000
000000
000000
000000
000000
000000
000000
1e3e00
1e7f00
1eff80
1fffc0
1fc3e0
1f81e0
1f01c0
1e0000
1e0000
1e0000
1e0000
1e0000
1e0000
1e0000
1e0000
1e0000
1e0000
000000
000000
000000
000000
000000
000000
000000
000000
ENDCHAR
STARTCHAR SMALL LETTER s
ENCODING 115
SWIDTH 834 0
DWIDTH 20 0
BBX 20 40 0 -3
BITMAP
000000
000000
000000
000000
000000
000000
000000
000000
000000
000000
000000
000000
000000
000000
000000
07ff80
0fffc0
1fffe0
1fffe0
1e00e0
1e0000
1ffe00
07ff00
07ff80
03ffc0
0001e0
0c01e0
1e01e0
1fffe0
1fffe0
0fffc0
07ff80
000000
000000
000000
000000
000000
000000
000000
000000
ENDCHAR
STARTCHAR SMALL LETTER t
ENCODING 116
SWIDTH 834 0
DWIDTH 20 0
BBX 20 40 0 -3
BITMAP
000000
000000
000000
000000
000000
000000
000000
000000
000000
000000
00f000
00f000
00f000
00f000
00f000
07fe00
07fe00
07fe00
07fe00
00f000
00f000
00f000
00f000
00f000
00f000
00f000
00f000
00f800
00fe00
00fe00
007e00
003e00
000000
000000
000000
000000
000000
000000
000000
000000
ENDCHAR
STARTCHAR SMALL LETTER u
ENCODING 117
SWIDTH 834 0
DWIDTH 20 0
BBX 20 40 0 -3
BITMAP
000000
000000
000000
000000
000000
000000
000000
000000
000000
000000
000000
000000
000000
000000
000000
1e01e0
1e01e0
1e01e0
1e01e0
1e01e0
1e01e0
1e01e0
1e01e0
1e01e0
1e01e0
1e07e0
1f0fe0
1f9fe0
0fffe0
07fde0
03f9e0
01f1c0
000000
000000
000000
000000
000000
000000
000000
000000
ENDCHAR
STARTCHAR SMALL LETTER v
ENCODING 118
SWIDTH 834 0
DWIDTH 20 0
BBX 20 40 0 -3
BITMAP
000000
000000
000000
000000
000000
000000
000000
000000
000000
000000
000000
000000
000000
000000
000000
7801e0
7801e0
7c03e0
3c03c0
3e07c0
1e0780
1f0f80
0f0f00
0f9f00
079e00
07fe00
03fc00
03fc00
01f800
01f800
00f000
00f000
000000
000000
000000
000000
000000
000000
000000
000000
ENDCHAR
STARTCHAR SMALL LETTER w
ENCODING 119
SWIDTH 834 0
DWIDTH 20 0
BBX 20 40 0 -3
BITMAP
000000
000000
000000
000000
000000
000000
000000
000000
000000
000000
000000
000000
000000
000000
000000
1e01e0
1e01e0
1e01e0
1e01e0
1e01e0
1e01e0
1e31e0
1e31e0
1e79e0
1efde0
1efde0
1fffe0
1fcfe0
1fcfe0
1f87e0
1f03e0
1e01e0
000000
000000
000000
000000
000000
000000
000000
000000
ENDCHAR
STARTCHAR SMALL LETTER x
ENCODING 120
SWIDTH 834 0
DWIDTH 20 0
BBX 20 40 0 -3
BITMAP
000000
000000
000000
000000
000000
000000
000000
000000
000000
000000
000000
000000
000000
000000
000000
1c00e0
1c00e0
1e01e0
0f03c0
078780
03cf00
01fe00
00fc00
00fc00
00fc00
01fe00
03cf00
078780
0f03c0
1e01e0
1e01e0
1e01e0
000000
000000
000000
000000
000000
000000
000000
000000
ENDCHAR
STARTCHAR SMALL LETTER y
ENCODING 121
SWIDTH 834 0
DWIDTH 20 0
BBX 20 40 0 -3
BITMAP
000000
000000
000000
000000
000000
000000
000000
000000
000000
000000
000000
000000
000000
000000
000000
1e01e0
1e01e0
1e01e0
1e01e0
1e01e0
1e01e0
1e01e0
1e01e0
1e01e0
1e01e0
1e01e0
1e03e0
1e07e0
0fffe0
07ffe0
03fde0
01f9e0
0001e0
0001e0
0001e0
0001e0
07ffc0
07ff80
07ff00
03fe00
ENDCHAR
STARTCHAR SMALL LETTER z
ENCODING 122
SWIDTH 834 0
DWIDTH 20 0
BBX 20 40 0 -3
BITMAP
000000
000000
000000
000000
000000
000000
000000
000000
000000
000000
000000
000000
000000
000000
000000
1fffe0
1fffe0
1fffe0
0fffc0
000780
001e00
003e00
003c00
00f800
00f000
03c000
07c000
078000
1fffc0
1fffe0
1fffe0
1fffc0
000000
000000
000000
000000
000000
000000
000000
000000
ENDCHAR
STARTCHAR LEFT CURLY BRACKET
ENCODING 123
SWIDTH 834 0
DWIDTH 20 0
BBX 20 40 0 -3
BITMAP
000000
000000
000000
000000
000000
000000
003e00
007e00
00fe00
00f800
00f000
00f000
00f000
00f000
00f000
00f000
01e000
03c000
07c000
07c000
03c000
01e000
00f000
00f000
00f000
00f000
00f000
00f000
00f000
00f800
007e00
003e00
000000
000000
000000
000000
000000
000000
000000
000000
ENDCHAR
STARTCHAR VERTICAL LINE
ENCODING 124
SWIDTH 834 0
DWIDTH 20 0
BBX 20 40 0 -3
BITMAP
000000
006000
00f000
00f000
00f000
00f000
00f000
00f000
00f000
00f000
00f000
00f000
00f000
00f000
00f000
00f000
00f000
00f000
00f000
00f000
00f000
00f000
00f000
00f000
00f000
00f000
00f000
00f000
00f000
00f000
00f000
00f000
00f000
00f000
00f000
00f000
00f000
00f000
006000
000000
ENDCHAR
STARTCHAR RIGHT CURLY BRACKET
ENCODING 125
SWIDTH 834 0
DWIDTH 20 0
BBX 20 40 0 -3
BITMAP
000000
000000
000000
000000
000000
000000
07c000
07e000
07f000
01f000
00f000
00f000
00f000
00f000
00f000
00f000
00f800
007c00
003e00
003e00
003c00
007800
00f000
00f000
00f000
00f000
00f000
00f000
00f000
01f000
07e000
07c000
000000
000000
000000
000000
000000
000000
000000
000000
ENDCHAR
STARTCHAR TILDE
ENCODING 126
SWIDTH 834 0
DWIDTH 20 0
BBX 20 40 0 -3
BITMAP
000000
000000
000000
000000
000000
000000
078040
0fc0e0
1fe1e0
1ff1e0
1cffe0
3c7fc0
781f80
380f00
000000
000000
000000
000000
000000
000000
000000
000000
000000
000000
000000
000000
000000
000000
000000
000000
000000
000000
000000
000000
000000
000000
000000
000000
000000
000000
ENDCHAR
STARTCHAR NO-BREAK SPACE                                                ,A (B
ENCODING 160
SWIDTH 834 0
DWIDTH 20 0
BBX 20 40 0 -3
BITMAP
000000
000000
000000
000000
000000
000000
000000
000000
000000
000000
000000
000000
000000
000000
000000
000000
000000
000000
000000
000000
000000
000000
000000
000000
000000
000000
000000
000000
000000
000000
000000
000000
000000
000000
000000
000000
000000
000000
000000
000000
ENDCHAR
STARTCHAR INVERTED EXCLAMATION MARK
ENCODING 161
SWIDTH 834 0
DWIDTH 20 0
BBX 20 40 0 -3
BITMAP
000000
000000
000000
000000
000000
000000
006000
00f000
01f800
03fc00
01f800
00f000
000000
000000
000000
00f000
00f000
00f000
00f000
00f000
00f000
00f000
00f000
00f000
00f000
00f000
00f000
00f000
00f000
00f000
00f000
00f000
000000
000000
000000
000000
000000
000000
000000
000000
ENDCHAR
STARTCHAR CENT SIGN
ENCODING 162
SWIDTH 834 0
DWIDTH 20 0
BBX 20 40 0 -3
BITMAP
000000
000000
000000
000000
000000
000000
000000
000000
003800
003c00
003c00
01fe00
03ff00
07ff80
07ffc0
1fbde0
1f3de0
1e3de0
1e3dc0
1e3c00
1e3c00
1e3dc0
1e3de0
1f3de0
1fbde0
07ffc0
07ff80
03ff00
01fe00
003c00
003c00
003800
000000
000000
000000
000000
000000
000000
000000
000000
ENDCHAR
STARTCHAR POUND SIGN
ENCODING 163
SWIDTH 834 0
DWIDTH 20 0
BBX 20 40 0 -3
BITMAP
000000
000000
000000
000000
000000
000000
000000
000000
00fe00
00fe00
03ff80
07ff80
07c780
07c300
078000
078000
07c000
07c000
1fff80
1fff80
1fff80
1fff80
03c000
03c000
03c000
07fe00
0fff00
1fff80
1fffc0
1f87e0
1e01e0
1e01c0
000000
000000
000000
000000
000000
000000
000000
000000
ENDCHAR
STARTCHAR CURRENCY SIGN
ENCODING 164
SWIDTH 834 0
DWIDTH 20 0
BBX 20 40 0 -3
BITMAP
000000
000000
000000
000000
000000
000000
000000
000000
000000
000000
000000
3801c0
7801e0
7ef7e0
7ef7e0
1fff80
1fff80
079e00
1f0f80
1e0780
1e0780
1f0f80
079e00
1fff80
1fff80
7ef7e0
7ef7e0
7801e0
3801c0
000000
000000
000000
000000
000000
000000
000000
000000
000000
000000
000000
ENDCHAR
STARTCHAR YEN SIGN
ENCODING 165
SWIDTH 834 0
DWIDTH 20 0
BBX 20 40 0 -3
BITMAP
000000
000000
000000
000000
000000
000000
000000
000000
1e0780
1e0780
1f9f80
1f9f80
079e00
07fe00
07fe00
03fc00
0fff00
1fff80
1fff80
1fff80
00f000
0fff00
1fff80
1fff80
1fff80
00f000
00f000
00f000
00f000
00f000
00f000
00f000
000000
000000
000000
000000
000000
000000
000000
000000
ENDCHAR
STARTCHAR BROKEN BAR
ENCODING 166
SWIDTH 834 0
DWIDTH 20 0
BBX 20 40 0 -3
BITMAP
000000
006000
00f000
00f000
00f000
00f000
00f000
00f000
00f000
00f000
00f000
00f000
00f000
00f000
00f000
00f000
00f000
00f000
006000
000000
000000
006000
00f000
00f000
00f000
00f000
00f000
00f000
00f000
00f000
00f000
00f000
00f000
00f000
00f000
00f000
00f000
00f000
006000
000000
ENDCHAR
STARTCHAR PARAGRAPH SIGN
ENCODING 167
SWIDTH 834 0
DWIDTH 20 0
BBX 20 40 0 -3
BITMAP
000000
000000
000000
000000
000000
000000
01fe00
03fe00
07ff80
07ff80
1f87e0
1f07e0
1e01e0
1f01c0
1f8000
07fe00
07ff00
07ff80
1fffc0
1e01e0
1e01e0
1fffc0
07ff80
07ff80
03ff80
0007e0
0c07e0
1e01e0
1f07e0
1f87e0
07ff80
07ff80
03fe00
01fe00
000000
000000
000000
000000
000000
000000
ENDCHAR
STARTCHAR DIAERESIS
ENCODING 168
SWIDTH 834 0
DWIDTH 20 0
BBX 20 40 0 -3
BITMAP
000000
070300
078780
078780
078780
000000
000000
000000
000000
000000
000000
000000
000000
000000
000000
000000
000000
000000
000000
000000
000000
000000
000000
000000
000000
000000
000000
000000
000000
000000
000000
000000
000000
000000
000000
000000
000000
000000
000000
000000
ENDCHAR
STARTCHAR COPYRIGHT SIGN
ENCODING 169
SWIDTH 834 0
DWIDTH 20 0
BBX 20 40 0 -3
BITMAP
000000
000000
000000
01fe00
03fe00
07ff80
0fffc0
1f87e0
1f03e0
1e01e0
1efde0
1fffe0
1fffe0
1fffe0
1fc7e0
1f81e0
1f81e0
1f81e0
1f81e0
1f81e0
1fc7e0
1fffe0
1fffe0
1fffe0
1efde0
1e01e0
1f03e0
1f87e0
0fffc0
07ff80
03fe00
01fe00
000000
000000
000000
000000
000000
000000
000000
000000
ENDCHAR
STARTCHAR FEMININE ORDINAL INDICATOR
ENCODING 170
SWIDTH 834 0
DWIDTH 20 0
BBX 20 40 0 -3
BITMAP
03fe00
07ff00
07ff80
07ff80
078780
00ff80
01ff80
03ff80
07ff80
078780
07ff80
07ff80
03ff80
01ff00
000000
07ff80
07ff80
07ff80
07ff00
000000
000000
000000
000000
000000
000000
000000
000000
000000
000000
000000
000000
000000
000000
000000
000000
000000
000000
000000
000000
000000
ENDCHAR
STARTCHAR LEFT ANGLE QUOTATION MARK
ENCODING 171
SWIDTH 834 0
DWIDTH 20 0
BBX 20 40 0 -3
BITMAP
000000
000000
000000
000000
000000
000000
0039c0
003de0
00ffc0
00f780
00f780
01ff80
03de00
03de00
03de00
07bc00
07bc00
07bc00
1ff800
1ef000
1ef000
1ff800
07bc00
07bc00
07bc00
03de00
03de00
03de00
01ff80
00f780
00f780
00ffc0
003de0
0039c0
000000
000000
000000
000000
000000
000000
ENDCHAR
STARTCHAR NOT SIGN
ENCODING 172
SWIDTH 834 0
DWIDTH 20 0
BBX 20 40 0 -3
BITMAP
000000
000000
000000
000000
000000
000000
000000
000000
000000
000000
000000
000000
000000
000000
000000
000000
000000
000000
3fffc0
7fffe0
7fffe0
3fffe0
0001e0
0001e0
0001e0
0001e0
0001c0
000000
000000
000000
000000
000000
000000
000000
000000
000000
000000
000000
000000
000000
ENDCHAR
STARTCHAR SOFT HYPHEN
ENCODING 173
SWIDTH 834 0
DWIDTH 20 0
BBX 20 40 0 -3
BITMAP
000000
000000
000000
000000
000000
000000
000000
000000
000000
000000
000000
000000
000000
000000
000000
000000
000000
000000
000000
000000
7fffe0
7fffe0
7fffe0
3fffc0
000000
000000
000000
000000
000000
000000
000000
000000
000000
000000
000000
000000
000000
000000
000000
000000
ENDCHAR
STARTCHAR REGISTERED TRADE MARK SIGN
ENCODING 174
SWIDTH 834 0
DWIDTH 20 0
BBX 20 40 0 -3
BITMAP
000000
000000
000000
01fe00
03fe00
07ff80
0fffc0
1f87e0
1f03e0
1e01e0
1ffde0
1fffe0
1fffe0
1fffe0
1f87e0
1f87e0
1fffe0
1fffe0
1fffe0
1ffde0
1fbde0
1fbfe0
1f9fe0
1f9fe0
1f9fe0
1e01e0
1f03e0
1f87e0
0fffc0
07ff80
03fe00
01fe00
000000
000000
000000
000000
000000
000000
000000
000000
ENDCHAR
STARTCHAR MACRON
ENCODING 175
SWIDTH 834 0
DWIDTH 20 0
BBX 20 40 0 -3
BITMAP
7fffe0
7fffe0
7fffe0
3fffc0
000000
000000
000000
000000
000000
000000
000000
000000
000000
000000
000000
000000
000000
000000
000000
000000
000000
000000
000000
000000
000000
000000
000000
000000
000000
000000
000000
000000
000000
000000
000000
000000
000000
000000
000000
000000
ENDCHAR
STARTCHAR DEGREE SIGN, RING ABOVE
ENCODING 176
SWIDTH 834 0
DWIDTH 20 0
BBX 20 40 0 -3
BITMAP
00fc00
01fe00
03de00
03de00
03de00
00fc00
00f800
000000
000000
000000
000000
000000
000000
000000
000000
000000
000000
000000
000000
000000
000000
000000
000000
000000
000000
000000
000000
000000
000000
000000
000000
000000
000000
000000
000000
000000
000000
000000
000000
000000
ENDCHAR
STARTCHAR PLUS-MINUS SIGN
ENCODING 177
SWIDTH 834 0
DWIDTH 20 0
BBX 20 40 0 -3
BITMAP
000000
000000
000000
000000
000000
000000
000000
000000
000000
000000
00f000
00f000
00f000
00f000
00f000
1fff80
1fff80
1fff80
0fff00
00f000
00f000
00f000
00f000
006000
000000
000000
0fff00
1fff80
1fff80
1fff80
000000
000000
000000
000000
000000
000000
000000
000000
000000
000000
ENDCHAR
STARTCHAR SUPERSCRIPT TWO
ENCODING 178
SWIDTH 834 0
DWIDTH 20 0
BBX 20 40 0 -3
BITMAP
03fe00
07ff00
07ff80
07ff80
078780
001f80
003f80
003e00
00fe00
00fc00
03f000
07f000
07c000
07ff80
07ff80
07ff80
07ff80
000000
000000
000000
000000
000000
000000
000000
000000
000000
000000
000000
000000
000000
000000
000000
000000
000000
000000
000000
000000
000000
000000
000000
ENDCHAR
STARTCHAR SUPERSCRIPT THREE
ENCODING 179
SWIDTH 834 0
DWIDTH 20 0
BBX 20 40 0 -3
BITMAP
03fe00
07ff00
07ff80
07ff80
078780
000780
007f80
00ff80
00ff80
00ff80
000780
070780
078780
07ff80
07ff80
03fe00
01fe00
000000
000000
000000
000000
000000
000000
000000
000000
000000
000000
000000
000000
000000
000000
000000
000000
000000
000000
000000
000000
000000
000000
000000
ENDCHAR
STARTCHAR ACUTE ACCENT
ENCODING 180
SWIDTH 834 0
DWIDTH 20 0
BBX 20 40 0 -3
BITMAP
003c00
007c00
00fc00
01f800
03c000
000000
000000
000000
000000
000000
000000
000000
000000
000000
000000
000000
000000
000000
000000
000000
000000
000000
000000
000000
000000
000000
000000
000000
000000
000000
000000
000000
000000
000000
000000
000000
000000
000000
000000
000000
ENDCHAR
STARTCHAR MICRO SIGN
ENCODING 181
SWIDTH 834 0
DWIDTH 20 0
BBX 20 40 0 -3
BITMAP
000000
000000
000000
000000
000000
000000
000000
000000
000000
000000
000000
000000
000000
000000
000000
00f1e0
00f1e0
00f1e0
00f1e0
00f1e0
00f1e0
01f3c0
03f780
03e780
03c780
03c780
03ffc0
03ffe0
07ffe0
07ffe0
0781e0
0781c0
078000
1f8000
1f8000
1e0000
1e0000
1e0000
1e0000
1e0000
ENDCHAR
STARTCHAR PILCROW SIGN
ENCODING 182
SWIDTH 834 0
DWIDTH 20 0
BBX 20 40 0 -3
BITMAP
000000
000000
000000
000000
000000
000000
000000
000000
01ffc0
03ffe0
07fee0
0ffee0
1ffee0
1ffee0
1ffee0
1ffee0
1ffee0
1ffee0
0ffee0
07fee0
03fee0
01fee0
0006e0
0006e0
0006e0
0006e0
0006e0
0006e0
0006e0
0006e0
0007e0
0007c0
000000
000000
000000
000000
000000
000000
000000
000000
ENDCHAR
STARTCHAR MIDDLE DOT
ENCODING 183
SWIDTH 834 0
DWIDTH 20 0
BBX 20 40 0 -3
BITMAP
000000
000000
000000
000000
000000
000000
000000
000000
000000
000000
000000
000000
000000
000000
000000
000000
006000
00f000
01f800
03fc00
03fc00
01f800
00f000
006000
000000
000000
000000
000000
000000
000000
000000
000000
000000
000000
000000
000000
000000
000000
000000
000000
ENDCHAR
STARTCHAR CEDILLA
ENCODING 184
SWIDTH 834 0
DWIDTH 20 0
BBX 20 40 0 -3
BITMAP
000000
000000
000000
000000
000000
000000
000000
000000
000000
000000
000000
000000
000000
000000
000000
000000
000000
000000
000000
000000
000000
000000
000000
000000
000000
000000
000000
000000
000000
000000
00f000
00f000
00f000
00f800
00fc00
001e00
01fe00
03fe00
03fe00
03fc00
ENDCHAR
STARTCHAR SUPERSCRIPT ONE
ENCODING 185
SWIDTH 834 0
DWIDTH 20 0
BBX 20 40 0 -3
BITMAP
00f000
01f000
03f000
07f000
07f000
00f000
00f000
00f000
00f000
00f000
00f000
00f000
00f000
07fe00
07fe00
07fe00
07fe00
000000
000000
000000
000000
000000
000000
000000
000000
000000
000000
000000
000000
000000
000000
000000
000000
000000
000000
000000
000000
000000
000000
000000
ENDCHAR
STARTCHAR MASCULINE ORDINAL INDICATOR
ENCODING 186
SWIDTH 834 0
DWIDTH 20 0
BBX 20 40 0 -3
BITMAP
03fe00
07ff00
07ff80
07ff80
078780
078780
078780
078780
078780
078780
07ff80
07ff80
03fe00
01fe00
000000
07ff80
07ff80
07ff80
07ff00
000000
000000
000000
000000
000000
000000
000000
000000
000000
000000
000000
000000
000000
000000
000000
000000
000000
000000
000000
000000
000000
ENDCHAR
STARTCHAR RIGHT ANGLE QUOTATION MARK
ENCODING 187
SWIDTH 834 0
DWIDTH 20 0
BBX 20 40 0 -3
BITMAP
000000
000000
000000
000000
000000
000000
0c6000
1ef000
0ff800
07bc00
07bc00
07fe00
03de00
03de00
03de00
00f780
00f780
00f780
007fc0
003de0
003de0
007fc0
00f780
00f780
00f780
03de00
03de00
03de00
07fe00
07bc00
07bc00
0ff800
1ef000
0c6000
000000
000000
000000
000000
000000
000000
ENDCHAR
STARTCHAR VULGAR FRACTION ONE QUARTER
ENCODING 188
SWIDTH 834 0
DWIDTH 20 0
BBX 20 40 0 -3
BITMAP
000000
000000
000000
070000
078000
1f8000
1f8000
078000
078000
078000
078000
0781c0
0781e0
1fc7e0
1fc7e0
1fdf80
1fff80
003e00
00fe00
00fc00
03f000
07f300
07c780
1fcf80
1f9f80
7e3f80
7e7f80
78f780
38ffc0
00ffe0
00ffe0
00ffc0
000780
000780
000780
000000
000000
000000
000000
000000
ENDCHAR
STARTCHAR VULGAR FRACTION ONE HALF
ENCODING 189
SWIDTH 834 0
DWIDTH 20 0
BBX 20 40 0 -3
BITMAP
000000
000000
000000
070000
078000
1f8000
1f8000
078000
078000
078000
078000
0781c0
0781e0
1fc7e0
1fc7e0
1fdf80
1fff80
003e00
00fe00
00fc00
03f000
07ff00
07df80
1fffc0
1fbfe0
7e3de0
7e39e0
7801e0
3807c0
000780
001e00
003fc0
003fe0
003fe0
003fe0
000000
000000
000000
000000
000000
ENDCHAR
STARTCHAR VULGAR FRACTION THREE QUARTERS
ENCODING 190
SWIDTH 834 0
DWIDTH 20 0
BBX 20 40 0 -3
BITMAP
000000
000000
000000
1fc000
1fc000
1ff000
1ff000
00f000
07e000
07c000
07c000
07e1c0
00f1e0
1ff7e0
1ff7e0
1fdf80
1fff80
003e00
00fe00
00fc00
03f000
07f300
07c780
1fcf80
1f9f80
7e3f80
7e7f80
78f780
38ffc0
00ffe0
00ffe0
00ffc0
000780
000780
000780
000000
000000
000000
000000
000000
ENDCHAR
STARTCHAR INVERTED QUESTION MARK
ENCODING 191
SWIDTH 834 0
DWIDTH 20 0
BBX 20 40 0 -3
BITMAP
000000
000000
000000
000000
000000
000000
006000
00f000
01f800
03fc00
00f000
00f000
000000
000000
000000
00f000
00f000
00f000
00f000
00f000
03c000
07c000
078000
1f0000
1e0000
1e0180
1f0f80
1f9f80
0fff00
07fe00
03fc00
01f800
000000
000000
000000
000000
000000
000000
000000
000000
ENDCHAR
STARTCHAR CAPITAL LETTER A WITH GRAVE ACCENT
ENCODING 192
SWIDTH 834 0
DWIDTH 20 0
BBX 20 40 0 -3
BITMAP
00f000
00f800
00fc00
007e00
001e00
000000
000000
000000
01fe00
03fe00
07ff80
0fffc0
1f87e0
1f03e0
1e01e0
1e01e0
1e01e0
1e01e0
1fffe0
1fffe0
1fffe0
1fffe0
1e01e0
1e01e0
1e01e0
1e01e0
1e01e0
1e01e0
1e01e0
1e01e0
1e01e0
1e01c0
000000
000000
000000
000000
000000
000000
000000
000000
ENDCHAR
STARTCHAR CAPITAL LETTER A WITH ACUTE ACCENT
ENCODING 193
SWIDTH 834 0
DWIDTH 20 0
BBX 20 40 0 -3
BITMAP
003c00
007c00
00fc00
01f800
03c000
000000
000000
000000
01fe00
03fe00
07ff80
0fffc0
1f87e0
1f03e0
1e01e0
1e01e0
1e01e0
1e01e0
1fffe0
1fffe0
1fffe0
1fffe0
1e01e0
1e01e0
1e01e0
1e01e0
1e01e0
1e01e0
1e01e0
1e01e0
1e01e0
1e01c0
000000
000000
000000
000000
000000
000000
000000
000000
ENDCHAR
STARTCHAR CAPITAL LETTER A WITH CIRCUMFLEX ACCENT
ENCODING 194
SWIDTH 834 0
DWIDTH 20 0
BBX 20 40 0 -3
BITMAP
00fc00
01fe00
03fe00
07ff80
078780
000000
000000
000000
01fe00
03fe00
07ff80
0fffc0
1f87e0
1f03e0
1e01e0
1e01e0
1e01e0
1e01e0
1fffe0
1fffe0
1fffe0
1fffe0
1e01e0
1e01e0
1e01e0
1e01e0
1e01e0
1e01e0
1e01e0
1e01e0
1e01e0
1e01c0
000000
000000
000000
000000
000000
000000
000000
000000
ENDCHAR
STARTCHAR CAPITAL LETTER A WITH TILDE
ENCODING 195
SWIDTH 834 0
DWIDTH 20 0
BBX 20 40 0 -3
BITMAP
07c0e0
0fe1e0
1ef1e0
1c7fc0
183f80
000000
000000
000000
01fe00
03fe00
07ff80
0fffc0
1f87e0
1f03e0
1e01e0
1e01e0
1e01e0
1e01e0
1fffe0
1fffe0
1fffe0
1fffe0
1e01e0
1e01e0
1e01e0
1e01e0
1e01e0
1e01e0
1e01e0
1e01e0
1e01e0
1e01c0
000000
000000
000000
000000
000000
000000
000000
000000
ENDCHAR
STARTCHAR CAPITAL LETTER A WITH DIAERESIS
ENCODING 196
SWIDTH 834 0
DWIDTH 20 0
BBX 20 40 0 -3
BITMAP
000000
070300
078780
078780
078780
000000
000000
000000
01fe00
03fe00
07ff80
0fffc0
1f87e0
1f03e0
1e01e0
1e01e0
1e01e0
1e01e0
1fffe0
1fffe0
1fffe0
1fffe0
1e01e0
1e01e0
1e01e0
1e01e0
1e01e0
1e01e0
1e01e0
1e01e0
1e01e0
1e01c0
000000
000000
000000
000000
000000
000000
000000
000000
ENDCHAR
STARTCHAR CAPITAL LETTER A WITH RING ABOVE
ENCODING 197
SWIDTH 834 0
DWIDTH 20 0
BBX 20 40 0 -3
BITMAP
00fc00
01fe00
03de00
03de00
03de00
00fc00
00f800
000000
01fe00
03fe00
07ff80
0fffc0
1f87e0
1f03e0
1e01e0
1e01e0
1e01e0
1e01e0
1fffe0
1fffe0
1fffe0
1fffe0
1e01e0
1e01e0
1e01e0
1e01e0
1e01e0
1e01e0
1e01e0
1e01e0
1e01e0
1e01c0
000000
000000
000000
000000
000000
000000
000000
000000
ENDCHAR
STARTCHAR CAPITAL DIPHTHONG A WITH E
ENCODING 198
SWIDTH 834 0
DWIDTH 20 0
BBX 20 40 0 -3
BITMAP
000000
000000
000000
000000
000000
000000
000000
000000
07ffc0
07ffe0
07ffe0
0fffc0
1e3c00
1e3c00
1e3c00
783c00
783fc0
783fe0
7fffe0
7fffe0
7ffc00
7ffc00
783c00
783c00
783c00
783c00
783c00
783c00
783fc0
783fe0
783fe0
383fc0
000000
000000
000000
000000
000000
000000
000000
000000
ENDCHAR
STARTCHAR CAPITAL LETTER C WITH CEDILLA
ENCODING 199
SWIDTH 834 0
DWIDTH 20 0
BBX 20 40 0 -3
BITMAP
000000
000000
000000
000000
000000
000000
000000
000000
01fe00
03fe00
07ff80
0fffc0
1f87e0
1f03e0
1e01e0
1e0000
1e0000
1e0000
1e0000
1e0000
1e0000
1e0000
1e0000
1e0000
1e0000
1e01e0
1f03e0
1f87e0
0fffc0
07ff80
03fe00
01fe00
00f000
00f800
00fc00
001e00
01fe00
03fe00
03fe00
03fc00
ENDCHAR
STARTCHAR CAPITAL LETTER E WITH GRAVE ACCENT
ENCODING 200
SWIDTH 834 0
DWIDTH 20 0
BBX 20 40 0 -3
BITMAP
00f000
00f800
00fc00
007e00
001e00
000000
000000
000000
1fffc0
1fffe0
1fffe0
1fffc0
1e0000
1e0000
1e0000
1e0000
1e0000
1e0000
1ffe00
1ffe00
1ffe00
1ffe00
1e0000
1e0000
1e0000
1e0000
1e0000
1e0000
1fffc0
1fffe0
1fffe0
1fffc0
000000
000000
000000
000000
000000
000000
000000
000000
ENDCHAR
STARTCHAR CAPITAL LETTER E WITH ACUTE ACCENT
ENCODING 201
SWIDTH 834 0
DWIDTH 20 0
BBX 20 40 0 -3
BITMAP
003c00
007c00
00fc00
01f800
03c000
000000
000000
000000
1fffc0
1fffe0
1fffe0
1fffc0
1e0000
1e0000
1e0000
1e0000
1e0000
1e0000
1ffe00
1ffe00
1ffe00
1ffe00
1e0000
1e0000
1e0000
1e0000
1e0000
1e0000
1fffc0
1fffe0
1fffe0
1fffc0
000000
000000
000000
000000
000000
000000
000000
000000
ENDCHAR
STARTCHAR CAPITAL LETTER E WITH CIRCUMFLEX ACCENT
ENCODING 202
SWIDTH 834 0
DWIDTH 20 0
BBX 20 40 0 -3
BITMAP
00fc00
01fe00
03fe00
07ff80
078780
000000
000000
000000
1fffc0
1fffe0
1fffe0
1fffc0
1e0000
1e0000
1e0000
1e0000
1e0000
1e0000
1ffe00
1ffe00
1ffe00
1ffe00
1e0000
1e0000
1e0000
1e0000
1e0000
1e0000
1fffc0
1fffe0
1fffe0
1fffc0
000000
000000
000000
000000
000000
000000
000000
000000
ENDCHAR
STARTCHAR CAPITAL LETTER E WITH DIAERESIS
ENCODING 203
SWIDTH 834 0
DWIDTH 20 0
BBX 20 40 0 -3
BITMAP
000000
070300
078780
078780
078780
000000
000000
000000
1fffc0
1fffe0
1fffe0
1fffc0
1e0000
1e0000
1e0000
1e0000
1e0000
1e0000
1ffe00
1ffe00
1ffe00
1ffe00
1e0000
1e0000
1e0000
1e0000
1e0000
1e0000
1fffc0
1fffe0
1fffe0
1fffc0
000000
000000
000000
000000
000000
000000
000000
000000
ENDCHAR
STARTCHAR CAPITAL LETTER I WITH GRAVE ACCENT
ENCODING 204
SWIDTH 834 0
DWIDTH 20 0
BBX 20 40 0 -3
BITMAP
03c000
03e000
03f000
01f800
003c00
000000
000000
000000
07fe00
07fe00
07fe00
07fe00
00f000
00f000
00f000
00f000
00f000
00f000
00f000
00f000
00f000
00f000
00f000
00f000
00f000
00f000
00f000
00f000
07fe00
07fe00
07fe00
07fe00
000000
000000
000000
000000
000000
000000
000000
000000
ENDCHAR
STARTCHAR CAPITAL LETTER I WITH ACUTE ACCENT
ENCODING 205
SWIDTH 834 0
DWIDTH 20 0
BBX 20 40 0 -3
BITMAP
003c00
007c00
00fc00
01f800
03c000
000000
000000
000000
07fe00
07fe00
07fe00
07fe00
00f000
00f000
00f000
00f000
00f000
00f000
00f000
00f000
00f000
00f000
00f000
00f000
00f000
00f000
00f000
00f000
07fe00
07fe00
07fe00
07fe00
000000
000000
000000
000000
000000
000000
000000
000000
ENDCHAR
STARTCHAR CAPITAL LETTER I WITH CIRCUMFLEX ACCENT
ENCODING 206
SWIDTH 834 0
DWIDTH 20 0
BBX 20 40 0 -3
BITMAP
00f000
01f800
03fc00
07fe00
079e00
000000
000000
000000
07fe00
07fe00
07fe00
07fe00
00f000
00f000
00f000
00f000
00f000
00f000
00f000
00f000
00f000
00f000
00f000
00f000
00f000
00f000
00f000
00f000
07fe00
07fe00
07fe00
07fe00
000000
000000
000000
000000
000000
000000
000000
000000
ENDCHAR
STARTCHAR CAPITAL LETTER I WITH DIAERESIS
ENCODING 207
SWIDTH 834 0
DWIDTH 20 0
BBX 20 40 0 -3
BITMAP
000000
070e00
079e00
079e00
079e00
000000
000000
000000
07fe00
07fe00
07fe00
07fe00
00f000
00f000
00f000
00f000
00f000
00f000
00f000
00f000
00f000
00f000
00f000
00f000
00f000
00f000
00f000
00f000
07fe00
07fe00
07fe00
07fe00
000000
000000
000000
000000
000000
000000
000000
000000
ENDCHAR
STARTCHAR CAPITAL ICELANDIC LETTER ETH
ENCODING 208
SWIDTH 834 0
DWIDTH 20 0
BBX 20 40 0 -3
BITMAP
000000
000000
000000
000000
000000
000000
000000
000000
1ffe00
1ffe00
1fff80
1fffc0
1e07e0
1e03e0
1e01e0
1e01e0
1e01e0
1e01e0
3ff1e0
7ff1e0
7ff1e0
3ff1e0
1e01e0
1e01e0
1e01e0
1e01e0
1e03e0
1e07e0
1fffc0
1fff80
1ffe00
1ffe00
000000
000000
000000
000000
000000
000000
000000
000000
ENDCHAR
STARTCHAR CAPITAL LETTER N WITH TILDE
ENCODING 209
SWIDTH 834 0
DWIDTH 20 0
BBX 20 40 0 -3
BITMAP
07c0e0
0fe1e0
1ef1e0
1c7fc0
183f80
000000
000000
000000
1e01c0
1e01e0
1f81e0
1f81e0
1f81e0
1fc1e0
1fc1e0
1fc1e0
1fe1e0
1ef1e0
1ef1e0
1ef1e0
1e3de0
1e3de0
1e3de0
1e3fe0
1e1fe0
1e1fe0
1e0fe0
1e07e0
1e07e0
1e07e0
1e01e0
1e01c0
000000
000000
000000
000000
000000
000000
000000
000000
ENDCHAR
STARTCHAR CAPITAL LETTER O WITH GRAVE ACCENT
ENCODING 210
SWIDTH 834 0
DWIDTH 20 0
BBX 20 40 0 -3
BITMAP
00f000
00f800
00fc00
007e00
001e00
000000
000000
000000
01fe00
03fe00
07ff80
0fffc0
1f87e0
1f03e0
1e01e0
1e01e0
1e01e0
1e01e0
1e01e0
1e01e0
1e01e0
1e01e0
1e01e0
1e01e0
1e01e0
1e01e0
1f03e0
1f87e0
0fffc0
07ff80
03fe00
01fe00
000000
000000
000000
000000
000000
000000
000000
000000
ENDCHAR
STARTCHAR CAPITAL LETTER O WITH ACUTE ACCENT
ENCODING 211
SWIDTH 834 0
DWIDTH 20 0
BBX 20 40 0 -3
BITMAP
003c00
007c00
00fc00
01f800
03c000
000000
000000
000000
01fe00
03fe00
07ff80
0fffc0
1f87e0
1f03e0
1e01e0
1e01e0
1e01e0
1e01e0
1e01e0
1e01e0
1e01e0
1e01e0
1e01e0
1e01e0
1e01e0
1e01e0
1f03e0
1f87e0
0fffc0
07ff80
03fe00
01fe00
000000
000000
000000
000000
000000
000000
000000
000000
ENDCHAR
STARTCHAR CAPITAL LETTER O WITH CIRCUMFLEX ACCENT
ENCODING 212
SWIDTH 834 0
DWIDTH 20 0
BBX 20 40 0 -3
BITMAP
00fc00
01fe00
03fe00
07ff80
078780
000000
000000
000000
01fe00
03fe00
07ff80
0fffc0
1f87e0
1f03e0
1e01e0
1e01e0
1e01e0
1e01e0
1e01e0
1e01e0
1e01e0
1e01e0
1e01e0
1e01e0
1e01e0
1e01e0
1f03e0
1f87e0
0fffc0
07ff80
03fe00
01fe00
000000
000000
000000
000000
000000
000000
000000
000000
ENDCHAR
STARTCHAR CAPITAL LETTER O WITH TILDE
ENCODING 213
SWIDTH 834 0
DWIDTH 20 0
BBX 20 40 0 -3
BITMAP
07c0e0
0fe1e0
1ef1e0
1c7fc0
183f80
000000
000000
000000
01fe00
03fe00
07ff80
0fffc0
1f87e0
1f03e0
1e01e0
1e01e0
1e01e0
1e01e0
1e01e0
1e01e0
1e01e0
1e01e0
1e01e0
1e01e0
1e01e0
1e01e0
1f03e0
1f87e0
0fffc0
07ff80
03fe00
01fe00
000000
000000
000000
000000
000000
000000
000000
000000
ENDCHAR
STARTCHAR CAPITAL LETTER O WITH DIAERESIS
ENCODING 214
SWIDTH 834 0
DWIDTH 20 0
BBX 20 40 0 -3
BITMAP
000000
070300
078780
078780
078780
000000
000000
000000
01fe00
03fe00
07ff80
0fffc0
1f87e0
1f03e0
1e01e0
1e01e0
1e01e0
1e01e0
1e01e0
1e01e0
1e01e0
1e01e0
1e01e0
1e01e0
1e01e0
1e01e0
1f03e0
1f87e0
0fffc0
07ff80
03fe00
01fe00
000000
000000
000000
000000
000000
000000
000000
000000
ENDCHAR
STARTCHAR MULTIPLICATION SIGN
ENCODING 215
SWIDTH 834 0
DWIDTH 20 0
BBX 20 40 0 -3
BITMAP
000000
000000
000000
000000
000000
000000
000000
000000
000000
000000
000000
000000
000000
1e01c0
1e01e0
1f87e0
1fcfc0
07df80
07ff00
03fe00
00fc00
01fe00
03fe00
07ff80
07df80
1f87e0
1f07e0
1e01e0
0c01c0
000000
000000
000000
000000
000000
000000
000000
000000
000000
000000
000000
ENDCHAR
STARTCHAR CAPITAL LETTER O WITH OBLIQUE STROKE
ENCODING 216
SWIDTH 834 0
DWIDTH 20 0
BBX 20 40 0 -3
BITMAP
000000
000000
000000
000000
000000
000000
000000
000000
01fe40
03fee0
07ffe0
0fffe0
1f87e0
1f07e0
1e07e0
1e1fe0
1e1fe0
1e1de0
1e3de0
1e3de0
1ef1e0
1ef1e0
1ec1e0
1fc1e0
1fc1e0
1f81e0
1f83e0
1f87e0
1fffc0
1fff80
1bfe00
19fe00
000000
000000
000000
000000
000000
000000
000000
000000
ENDCHAR
STARTCHAR CAPITAL LETTER U WITH GRAVE ACCENT
ENCODING 217
SWIDTH 834 0
DWIDTH 20 0
BBX 20 40 0 -3
BITMAP
00f000
00f800
00fc00
007e00
001e00
000000
000000
000000
1e01c0
1e01e0
1e01e0
1e01e0
1e01e0
1e01e0
1e01e0
1e01e0
1e01e0
1e01e0
1e01e0
1e01e0
1e01e0
1e01e0
1e01e0
1e01e0
1e01e0
1e01e0
1f03e0
1f87e0
0fffc0
07ff80
03fe00
01fe00
000000
000000
000000
000000
000000
000000
000000
000000
ENDCHAR
STARTCHAR CAPITAL LETTER U WITH ACUTE ACCENT
ENCODING 218
SWIDTH 834 0
DWIDTH 20 0
BBX 20 40 0 -3
BITMAP
003c00
007c00
00fc00
01f800
03c000
000000
000000
000000
1e01c0
1e01e0
1e01e0
1e01e0
1e01e0
1e01e0
1e01e0
1e01e0
1e01e0
1e01e0
1e01e0
1e01e0
1e01e0
1e01e0
1e01e0
1e01e0
1e01e0
1e01e0
1f03e0
1f87e0
0fffc0
07ff80
03fe00
01fe00
000000
000000
000000
000000
000000
000000
000000
000000
ENDCHAR
STARTCHAR CAPITAL LETTER U WITH CIRCUMFLEX ACCENT
ENCODING 219
SWIDTH 834 0
DWIDTH 20 0
BBX 20 40 0 -3
BITMAP
00fc00
01fe00
03fe00
07ff80
078780
000000
000000
000000
1e01c0
1e01e0
1e01e0
1e01e0
1e01e0
1e01e0
1e01e0
1e01e0
1e01e0
1e01e0
1e01e0
1e01e0
1e01e0
1e01e0
1e01e0
1e01e0
1e01e0
1e01e0
1f03e0
1f87e0
0fffc0
07ff80
03fe00
01fe00
000000
000000
000000
000000
000000
000000
000000
000000
ENDCHAR
STARTCHAR CAPITAL LETTER U WITH DIAERESIS
ENCODING 220
SWIDTH 834 0
DWIDTH 20 0
BBX 20 40 0 -3
BITMAP
000000
070300
078780
078780
078780
000000
000000
000000
1e01c0
1e01e0
1e01e0
1e01e0
1e01e0
1e01e0
1e01e0
1e01e0
1e01e0
1e01e0
1e01e0
1e01e0
1e01e0
1e01e0
1e01e0
1e01e0
1e01e0
1e01e0
1f03e0
1f87e0
0fffc0
07ff80
03fe00
01fe00
000000
000000
000000
000000
000000
000000
000000
000000
ENDCHAR
STARTCHAR CAPITAL LETTER Y WITH ACUTE ACCENT
ENCODING 221
SWIDTH 834 0
DWIDTH 20 0
BBX 20 40 0 -3
BITMAP
003c00
007c00
00fc00
01f800
03c000
000000
000000
000000
3801c0
7801e0
7801e0
3c03c0
1e0780
1e0780
1e0780
079e00
07fe00
07fe00
07fe00
03fc00
00f000
00f000
00f000
00f000
00f000
00f000
00f000
00f000
00f000
00f000
00f000
00f000
000000
000000
000000
000000
000000
000000
000000
000000
ENDCHAR
STARTCHAR CAPITAL ICELANDIC LETTER THORN
ENCODING 222
SWIDTH 834 0
DWIDTH 20 0
BBX 20 40 0 -3
BITMAP
000000
000000
000000
000000
000000
000000
000000
000000
1e0e00
1e1e00
1e3f80
1e7fc0
1ef1e0
1fe1e0
1fc1e0
1f81e0
1f01e0
1e01e0
1e01e0
1e01e0
1f81e0
1fc1e0
1fc1e0
1ff1e0
1ef1e0
1e3f80
1e3f80
1e1e00
1e0e00
1e0000
1e0000
3e0000
780000
780000
700000
000000
000000
000000
000000
000000
ENDCHAR
STARTCHAR SMALL GERMAN LETTER SHARP s
ENCODING 223
SWIDTH 834 0
DWIDTH 20 0
BBX 20 40 0 -3
BITMAP
000000
000000
000000
000000
000000
000000
000000
000000
01fe00
03fe00
07ff80
0fffc0
1f87e0
1f03e0
1e01e0
1e01e0
1e03e0
1e07e0
1e3fc0
1e3f80
1e3fe0
1e3fe0
1e07e0
1e03e0
1e01e0
1e01e0
1e03e0
1e07e0
1e3fc0
1e3f80
1e3e00
1e3e00
000000
000000
000000
000000
000000
000000
000000
000000
ENDCHAR
STARTCHAR SMALL LETTER a WITH GRAVE ACCENT
ENCODING 224
SWIDTH 834 0
DWIDTH 20 0
BBX 20 40 0 -3
BITMAP
000000
000000
000000
000000
000000
00f000
00f800
00fc00
007e00
001e00
000000
000000
000000
00fe00
00fe00
03ff80
07ffc0
0781e0
0701e0
0001e0
00ffe0
07ffe0
07ffe0
1fffe0
1e01e0
1e07e0
1e0fe0
1e1fe0
1fffe0
1ffde0
07f1e0
07f1c0
000000
000000
000000
000000
000000
000000
000000
000000
ENDCHAR
STARTCHAR SMALL LETTER a WITH ACUTE ACCENT
ENCODING 225
SWIDTH 834 0
DWIDTH 20 0
BBX 20 40 0 -3
BITMAP
000000
000000
000000
000000
000000
001e00
003e00
003e00
00fe00
00f000
000000
000000
000000
00fe00
00fe00
03ff80
07ffc0
0781e0
0701e0
0001e0
00ffe0
07ffe0
07ffe0
1fffe0
1e01e0
1e07e0
1e0fe0
1e1fe0
1fffe0
1ffde0
07f1e0
07f1c0
000000
000000
000000
000000
000000
000000
000000
000000
ENDCHAR
STARTCHAR SMALL LETTER a WITH CIRCUMFLEX ACCENT
ENCODING 226
SWIDTH 834 0
DWIDTH 20 0
BBX 20 40 0 -3
BITMAP
000000
000000
000000
000000
000000
00fc00
01fe00
03fe00
07ff80
078780
000000
000000
000000
00fe00
00fe00
03ff80
07ffc0
0781e0
0701e0
0001e0
00ffe0
07ffe0
07ffe0
1fffe0
1e01e0
1e07e0
1e0fe0
1e1fe0
1fffe0
1ffde0
07f1e0
07f1c0
000000
000000
000000
000000
000000
000000
000000
000000
ENDCHAR
STARTCHAR SMALL LETTER a WITH TILDE
ENCODING 227
SWIDTH 834 0
DWIDTH 20 0
BBX 20 40 0 -3
BITMAP
000000
000000
000000
000000
000000
07c0e0
0fe1e0
1ef1e0
1c7fc0
183f80
000000
000000
000000
00fe00
00fe00
03ff80
07ffc0
0781e0
0701e0
0001e0
00ffe0
07ffe0
07ffe0
1fffe0
1e01e0
1e07e0
1e0fe0
1e1fe0
1fffe0
1ffde0
07f1e0
07f1c0
000000
000000
000000
000000
000000
000000
000000
000000
ENDCHAR
STARTCHAR SMALL LETTER a WITH DIAERESIS
ENCODING 228
SWIDTH 834 0
DWIDTH 20 0
BBX 20 40 0 -3
BITMAP
000000
000000
000000
000000
000000
000000
01c300
03c780
03c780
03c780
000000
000000
000000
00fe00
00fe00
03ff80
07ffc0
0781e0
0701e0
0001e0
00ffe0
07ffe0
07ffe0
1fffe0
1e01e0
1e07e0
1e0fe0
1e1fe0
1fffe0
1ffde0
07f1e0
07f1c0
000000
000000
000000
000000
000000
000000
000000
000000
ENDCHAR
STARTCHAR SMALL LETTER a WITH RING ABOVE
ENCODING 229
SWIDTH 834 0
DWIDTH 20 0
BBX 20 40 0 -3
BITMAP
000000
000000
000000
000000
000000
00fc00
01fe00
03de00
03de00
03de00
00fc00
00f800
000000
00fe00
00fe00
03ff80
07ffc0
0781e0
0701e0
0001e0
00ffe0
07ffe0
07ffe0
1fffe0
1e01e0
1e07e0
1e0fe0
1e1fe0
1fffe0
1ffde0
07f1e0
07f1c0
000000
000000
000000
000000
000000
000000
000000
000000
ENDCHAR
STARTCHAR SMALL DIPHTHONG a WITH e
ENCODING 230
SWIDTH 834 0
DWIDTH 20 0
BBX 20 40 0 -3
BITMAP
000000
000000
000000
000000
000000
000000
000000
000000
000000
000000
000000
000000
000000
1f0f80
1f9f80
7fffe0
7fffe0
70f1e0
20f1e0
00f1e0
07ffe0
0fffc0
1fff80
3fff00
78f000
78f000
78f1c0
78f1e0
7fffe0
7fffe0
1fff80
1fff80
000000
000000
000000
000000
000000
000000
000000
000000
ENDCHAR
STARTCHAR SMALL LETTER c WITH CEDILLA
ENCODING 231
SWIDTH 834 0
DWIDTH 20 0
BBX 20 40 0 -3
BITMAP
000000
000000
000000
000000
000000
000000
000000
000000
000000
000000
000000
000000
000000
000000
000000
00ff80
07ff80
07ff80
1fffc0
1f81e0
1e01e0
1e01c0
1e0000
1e0000
1e0000
1e0000
1f01c0
1f81e0
0fffe0
07ffe0
03ff80
01ff80
00f000
00f800
00fc00
001e00
01fe00
03fe00
03fe00
03fc00
ENDCHAR
STARTCHAR SMALL LETTER e WITH GRAVE ACCENT
ENCODING 232
SWIDTH 834 0
DWIDTH 20 0
BBX 20 40 0 -3
BITMAP
000000
000000
000000
000000
000000
000000
006000
00f000
00f800
00fc00
001e00
000e00
000000
000000
000000
03fe00
07ff00
07ff80
1fffc0
1f81e0
1e01e0
1fffe0
1fffe0
1fffe0
1fffe0
1e0000
1e01c0
1e01e0
0fffe0
07ffe0
03ff80
01ff80
000000
000000
000000
000000
000000
000000
000000
000000
ENDCHAR
STARTCHAR SMALL LETTER e WITH ACUTE ACCENT
ENCODING 233
SWIDTH 834 0
DWIDTH 20 0
BBX 20 40 0 -3
BITMAP
000000
000000
000000
000000
000000
000000
003800
003c00
00fc00
00fc00
03c000
01c000
000000
000000
000000
03fe00
07ff00
07ff80
1fffc0
1f81e0
1e01e0
1fffe0
1fffe0
1fffe0
1fffe0
1e0000
1e01c0
1e01e0
0fffe0
07ffe0
03ff80
01ff80
000000
000000
000000
000000
000000
000000
000000
000000
ENDCHAR
STARTCHAR SMALL LETTER e WITH CIRCUMFLEX ACCENT
ENCODING 234
SWIDTH 834 0
DWIDTH 20 0
BBX 20 40 0 -3
BITMAP
000000
000000
000000
000000
000000
000000
007800
00fc00
01fe00
03fe00
078780
070780
000000
000000
000000
03fe00
07ff00
07ff80
1fffc0
1f81e0
1e01e0
1fffe0
1fffe0
1fffe0
1fffe0
1e0000
1e01c0
1e01e0
0fffe0
07ffe0
03ff80
01ff80
000000
000000
000000
000000
000000
000000
000000
000000
ENDCHAR
STARTCHAR SMALL LETTER e WITH DIAERESIS
ENCODING 235
SWIDTH 834 0
DWIDTH 20 0
BBX 20 40 0 -3
BITMAP
000000
000000
000000
000000
000000
000000
000000
000000
070780
078780
078780
070780
000000
000000
000000
03fe00
07ff00
07ff80
1fffc0
1f81e0
1e01e0
1fffe0
1fffe0
1fffe0
1fffe0
1e0000
1e01c0
1e01e0
0fffe0
07ffe0
03ff80
01ff80
000000
000000
000000
000000
000000
000000
000000
000000
ENDCHAR
STARTCHAR SMALL LETTER i WITH GRAVE ACCENT
ENCODING 236
SWIDTH 834 0
DWIDTH 20 0
BBX 20 40 0 -3
BITMAP
000000
000000
000000
000000
000000
000000
01c000
03c000
03f000
03f000
003c00
003800
000000
000000
000000
00f000
00f000
00f000
00f000
00f000
00f000
00f000
00f000
00f000
00f000
00f000
00f000
00f000
00f000
00f000
00f000
00f000
000000
000000
000000
000000
000000
000000
000000
000000
ENDCHAR
STARTCHAR SMALL LETTER i WITH ACUTE ACCENT
ENCODING 237
SWIDTH 834 0
DWIDTH 20 0
BBX 20 40 0 -3
BITMAP
000000
000000
000000
000000
000000
000000
003800
003c00
00fc00
00fc00
03c000
01c000
000000
000000
000000
00f000
00f000
00f000
00f000
00f000
00f000
00f000
00f000
00f000
00f000
00f000
00f000
00f000
00f000
00f000
00f000
00f000
000000
000000
000000
000000
000000
000000
000000
000000
ENDCHAR
STARTCHAR SMALL LETTER i WITH CIRCUMFLEX ACCENT
ENCODING 238
SWIDTH 834 0
DWIDTH 20 0
BBX 20 40 0 -3
BITMAP
000000
000000
000000
000000
000000
000000
006000
00f000
01f800
03fc00
079e00
070e00
000000
000000
000000
00f000
00f000
00f000
00f000
00f000
00f000
00f000
00f000
00f000
00f000
00f000
00f000
00f000
00f000
00f000
00f000
00f000
000000
000000
000000
000000
000000
000000
000000
000000
ENDCHAR
STARTCHAR SMALL LETTER i WITH DIAERESIS
ENCODING 239
SWIDTH 834 0
DWIDTH 20 0
BBX 20 40 0 -3
BITMAP
000000
000000
000000
000000
000000
000000
000000
000000
070e00
079e00
079e00
070e00
000000
000000
000000
00f000
00f000
00f000
00f000
00f000
00f000
00f000
00f000
00f000
00f000
00f000
00f000
00f000
00f000
00f000
00f000
00f000
000000
000000
000000
000000
000000
000000
000000
000000
ENDCHAR
STARTCHAR SMALL ICELANDIC LETTER ETH
ENCODING 240
SWIDTH 834 0
DWIDTH 20 0
BBX 20 40 0 -3
BITMAP
000000
000000
000000
000000
000000
000000
000000
000000
07c7c0
07c7e0
07ffe0
07ffc0
003e00
01ff80
03ff80
1fc7e0
1fc7e0
1e01e0
0fffe0
03ffe0
07ffe0
0fffe0
1f81e0
1f01e0
1e01e0
1e01e0
1f03e0
1f87e0
0fffc0
07ff80
03fe00
01fe00
000000
000000
000000
000000
000000
000000
000000
000000
ENDCHAR
STARTCHAR SMALL LETTER n WITH TILDE
ENCODING 241
SWIDTH 834 0
DWIDTH 20 0
BBX 20 40 0 -3
BITMAP
000000
000000
000000
000000
000000
000000
07c040
07c0e0
1ff1e0
1ef1e0
183f80
183f80
000000
000000
000000
1e3e00
1e7f00
1eff80
1fffc0
1fc1e0
1f81e0
1f01e0
1e01e0
1e01e0
1e01e0
1e01e0
1e01e0
1e01e0
1e01e0
1e01e0
1e01e0
1e01c0
000000
000000
000000
000000
000000
000000
000000
000000
ENDCHAR
STARTCHAR SMALL LETTER o WITH GRAVE ACCENT
ENCODING 242
SWIDTH 834 0
DWIDTH 20 0
BBX 20 40 0 -3
BITMAP
000000
000000
000000
000000
000000
000000
006000
00f000
00f800
00fc00
001e00
000e00
000000
000000
000000
03fe00
07ff00
07ff80
1fffc0
1f87e0
1e01e0
1e01e0
1e01e0
1e01e0
1e01e0
1e01e0
1f03e0
1f87e0
0fffc0
07ff80
03fe00
01fe00
000000
000000
000000
000000
000000
000000
000000
000000
ENDCHAR
STARTCHAR SMALL LETTER o WITH ACUTE ACCENT
ENCODING 243
SWIDTH 834 0
DWIDTH 20 0
BBX 20 40 0 -3
BITMAP
000000
000000
000000
000000
000000
000000
003800
003c00
00fc00
00fc00
03c000
01c000
000000
000000
000000
03fe00
07ff00
07ff80
1fffc0
1f87e0
1e01e0
1e01e0
1e01e0
1e01e0
1e01e0
1e01e0
1f03e0
1f87e0
0fffc0
07ff80
03fe00
01fe00
000000
000000
000000
000000
000000
000000
000000
000000
ENDCHAR
STARTCHAR SMALL LETTER o WITH CIRCUMFLEX ACCENT
ENCODING 244
SWIDTH 834 0
DWIDTH 20 0
BBX 20 40 0 -3
BITMAP
000000
000000
000000
000000
000000
000000
007800
00fc00
01fe00
03fe00
078780
070780
000000
000000
000000
03fe00
07ff00
07ff80
1fffc0
1f87e0
1e01e0
1e01e0
1e01e0
1e01e0
1e01e0
1e01e0
1f03e0
1f87e0
0fffc0
07ff80
03fe00
01fe00
000000
000000
000000
000000
000000
000000
000000
000000
ENDCHAR
STARTCHAR SMALL LETTER o WITH TILDE
ENCODING 245
SWIDTH 834 0
DWIDTH 20 0
BBX 20 40 0 -3
BITMAP
000000
000000
000000
000000
000000
000000
07c040
07c0e0
1ff1e0
1ef1e0
183f80
183f80
000000
000000
000000
03fe00
07ff00
07ff80
1fffc0
1f87e0
1e01e0
1e01e0
1e01e0
1e01e0
1e01e0
1e01e0
1f03e0
1f87e0
0fffc0
07ff80
03fe00
01fe00
000000
000000
000000
000000
000000
000000
000000
000000
ENDCHAR
STARTCHAR SMALL LETTER o WITH DIAERESIS
ENCODING 246
SWIDTH 834 0
DWIDTH 20 0
BBX 20 40 0 -3
BITMAP
000000
000000
000000
000000
000000
000000
000000
000000
070780
078780
078780
070780
000000
000000
000000
03fe00
07ff00
07ff80
1fffc0
1f87e0
1e01e0
1e01e0
1e01e0
1e01e0
1e01e0
1e01e0
1f03e0
1f87e0
0fffc0
07ff80
03fe00
01fe00
000000
000000
000000
000000
000000
000000
000000
000000
ENDCHAR
STARTCHAR DIVISION SIGN
ENCODING 247
SWIDTH 834 0
DWIDTH 20 0
BBX 20 40 0 -3
BITMAP
000000
000000
000000
000000
000000
000000
000000
000000
000000
000000
000000
006000
00f000
01f800
03fc00
00f000
00f000
000000
3fffc0
7fffe0
7fffe0
3fffc0
000000
00f000
00f000
03fc00
01f800
00f000
006000
000000
000000
000000
000000
000000
000000
000000
000000
000000
000000
000000
ENDCHAR
STARTCHAR SMALL LETTER o WITH OBLIQUE STROKE
ENCODING 248
SWIDTH 834 0
DWIDTH 20 0
BBX 20 40 0 -3
BITMAP
000000
000000
000000
000000
000000
000000
000000
000000
000000
000000
000000
000000
000000
000000
000000
03fde0
07ffe0
07ffe0
1fffc0
1f9f80
1e3fe0
1e3fe0
1e3de0
1efde0
1efde0
1ff1e0
1ff3e0
07c7e0
1fffc0
1fff80
1efe00
1efe00
000000
000000
000000
000000
000000
000000
000000
000000
ENDCHAR
STARTCHAR SMALL LETTER u WITH GRAVE ACCENT
ENCODING 249
SWIDTH 834 0
DWIDTH 20 0
BBX 20 40 0 -3
BITMAP
000000
000000
000000
000000
000000
000000
006000
00f000
00f800
00fc00
001e00
000e00
000000
000000
000000
1e01e0
1e01e0
1e01e0
1e01e0
1e01e0
1e01e0
1e01e0
1e01e0
1e01e0
1e01e0
1e07e0
1f0fe0
1f9fe0
0fffe0
07fde0
03f1e0
01f1c0
000000
000000
000000
000000
000000
000000
000000
000000
ENDCHAR
STARTCHAR SMALL LETTER u WITH ACUTE ACCENT
ENCODING 250
SWIDTH 834 0
DWIDTH 20 0
BBX 20 40 0 -3
BITMAP
000000
000000
000000
000000
000000
000000
003800
003c00
00fc00
00fc00
03c000
01c000
000000
000000
000000
1e01e0
1e01e0
1e01e0
1e01e0
1e01e0
1e01e0
1e01e0
1e01e0
1e01e0
1e01e0
1e07e0
1f0fe0
1f9fe0
0fffe0
07fde0
03f1e0
01f1c0
000000
000000
000000
000000
000000
000000
000000
000000
ENDCHAR
STARTCHAR SMALL LETTER u WITH CIRCUMFLEX ACCENT
ENCODING 251
SWIDTH 834 0
DWIDTH 20 0
BBX 20 40 0 -3
BITMAP
000000
000000
000000
000000
000000
000000
007800
00fc00
01fe00
03fe00
078780
070780
000000
000000
000000
1e01e0
1e01e0
1e01e0
1e01e0
1e01e0
1e01e0
1e01e0
1e01e0
1e01e0
1e01e0
1e07e0
1f0fe0
1f9fe0
0fffe0
07fde0
03f1e0
01f1c0
000000
000000
000000
000000
000000
000000
000000
000000
ENDCHAR
STARTCHAR SMALL LETTER u WITH DIAERESIS
ENCODING 252
SWIDTH 834 0
DWIDTH 20 0
BBX 20 40 0 -3
BITMAP
000000
000000
000000
000000
000000
000000
000000
000000
070780
078780
078780
070780
000000
000000
000000
1e01e0
1e01e0
1e01e0
1e01e0
1e01e0
1e01e0
1e01e0
1e01e0
1e01e0
1e01e0
1e07e0
1f0fe0
1f9fe0
0fffe0
07fde0
03f1e0
01f1c0
000000
000000
000000
000000
000000
000000
000000
000000
ENDCHAR
STARTCHAR SMALL LETTER y WITH ACUTE ACCENT
ENCODING 253
SWIDTH 834 0
DWIDTH 20 0
BBX 20 40 0 -3
BITMAP
000000
000000
000000
000000
000000
000000
000e00
001e00
003e00
003e00
00f000
00f000
000000
000000
000000
1e01e0
1e01e0
1e01e0
1e01e0
1e01e0
1e01e0
1e01e0
1e01e0
1e01e0
1e01e0
1e01e0
1f03e0
1f87e0
0fffe0
07ffe0
03fde0
01f9e0
0001e0
0001e0
0001e0
0007e0
07ffc0
07ff80
07ff00
03fe00
ENDCHAR
STARTCHAR SMALL ICELANDIC LETTER THORN
ENCODING 254
SWIDTH 834 0
DWIDTH 20 0
BBX 20 40 0 -3
BITMAP
000000
000000
000000
000000
000000
000000
000000
000000
1e0000
1e0000
1e0000
1e0000
1e0000
1e0000
1e0000
1e3e00
1e7f00
1eff80
1fffc0
1fc7e0
1f81e0
1f01e0
1e01e0
1e01e0
1e01e0
1e07e0
1e0fc0
1e1f80
1fff00
1ffe00
1ffc00
1ff800
1e0000
1e0000
1e0000
1e0000
1e0000
1e0000
1e0000
1e0000
ENDCHAR
STARTCHAR SMALL LETTER y WITH DIAERESIS
ENCODING 255
SWIDTH 834 0
DWIDTH 20 0
BBX 20 40 0 -3
BITMAP
000000
000000
000000
000000
000000
000000
000000
000000
070780
078780
078780
070780
000000
000000
000000
1e01e0
1e01e0
1e01e0
1e01e0
1e01e0
1e01e0
1e01e0
1e01e0
1e01e0
1e01e0
1e01e0
1f03e0
1f87e0
0fffe0
07ffe0
03fde0
01f9e0
0001e0
0001e0
0001e0
0007e0
07ffc0
07ff80
07ff00
03fe00
ENDCHAR
ENDFONT
